<svg xmlns="http://www.w3.org/2000/svg" version="1.1" xmlns:xlink="http://www.w3.org/1999/xlink" width="512" height="512" x="0" y="0" viewBox="0 0 64 64" style="enable-background:new 0 0 512 512" xml:space="preserve" class=""><g transform="matrix(1.0699999999999998,0,0,1.0699999999999998,-2.239975566864004,-2.2398936557769744)"><path d="M40.798 2.938c-.863-.907-2.284-1.188-3.616-.713l-5.315 1.889c-1.332.473-2.257 1.586-2.356 2.835l-.03.379-3.377 1.202a7.444 7.444 0 0 0-4.937 7v1.257h-.282c-1.22 0-2.213 1.148-2.213 2.56v20.32a2.398 2.398 0 0 0-.713 1.707V60h-1.258a1 1 0 0 0 0 2h10.932a1 1 0 0 0 0-2h-1.258V41.374c0-.667-.273-1.27-.712-1.707v-20.32c0-1.412-.993-2.56-2.214-2.56h-.282v-1.258a5.44 5.44 0 0 1 3.608-5.115L29.71 9.37c.179.355.43.678.767.936.557.426 1.268.648 2.01.648.427 0 .863-.074 1.286-.223l6.105-2.17c1.156-.411 2.033-1.334 2.288-2.41a2.632 2.632 0 0 0-.659-2.469l-.709-.743zm-17.36 15.847c.064.022.225.222.225.561v19.622h-2.991V19.346c0-.34.16-.538.213-.56h2.553zM41.58 15.54l2.547 5.544a1 1 0 1 1-1.817.835l-2.548-5.544a1 1 0 1 1 1.818-.835zm-5.362.49a1 1 0 0 1 .759 1.195l-.813 3.643a1 1 0 0 1-1.952-.435l.812-3.644c.121-.538.66-.876 1.194-.758zm7.282-2.55a1 1 0 0 1 .866-1.804l3.365 1.614a1 1 0 0 1-.865 1.804z" fill="#00ffff" opacity="1" data-original="#00ffff" class=""></path></g></svg>