<svg xmlns="http://www.w3.org/2000/svg" version="1.1" xmlns:xlink="http://www.w3.org/1999/xlink" width="512" height="512" x="0" y="0" viewBox="0 0 512 512" style="enable-background:new 0 0 512 512" xml:space="preserve" class=""><g><path d="M469.661 297.34v27.595c0 8.119-6.605 14.725-14.725 14.725h-21.273a180.603 180.603 0 0 1-22.123 53.373l15.053 15.052c5.742 5.742 5.742 15.083.001 20.825l-39.027 39.024c-5.737 5.738-15.079 5.741-20.822.001l-15.053-15.053a180.508 180.508 0 0 1-53.371 22.122v21.272c0 8.119-6.605 14.724-14.726 14.724h-55.189c-8.119 0-14.725-6.604-14.725-14.724v-21.271a180.603 180.603 0 0 1-53.373-22.123l-15.052 15.053a14.63 14.63 0 0 1-10.412 4.307 14.624 14.624 0 0 1-10.413-4.307L85.407 428.91c-5.741-5.742-5.741-15.083 0-20.825l15.052-15.051a180.515 180.515 0 0 1-22.122-53.374H57.064c-8.12 0-14.726-6.605-14.726-14.725V297.34a8 8 0 0 1 8-8h74.239a8 8 0 0 1 8 8c0 68.055 55.367 123.422 123.422 123.422s123.422-55.367 123.422-123.422a8 8 0 0 1 8-8h74.239a8 8 0 0 1 8.001 8zM87.549 267.244a13.876 13.876 0 0 1-2.088-10.481l23.297-116.945c1.506-7.552 8.87-12.473 16.425-10.968l29.982 5.973a13.88 13.88 0 0 1 8.88 5.945 14.114 14.114 0 0 1 1.584 3.216h31.978c-15.798-15.404-24.984-36.654-24.984-59.605C172.622 38.403 210.025 1 256 1s83.378 37.403 83.378 83.378a83.285 83.285 0 0 1-31.613 65.37c14.384 5.266 26.917 3.873 37.958.53-.917-7.204 3.884-14.016 11.111-15.456l29.98-5.973c7.557-1.502 14.921 3.417 16.427 10.967l23.297 116.946a13.871 13.871 0 0 1-2.088 10.481 13.877 13.877 0 0 1-8.88 5.945l-29.98 5.973c-.918.183-1.833.271-2.734.271-5.568 0-10.635-3.362-12.824-8.473l-9.182 9.181c1.993 8.367-.393 17.479-6.618 23.703-4.679 4.678-10.758 7.123-16.9 7.333-.216 6.396-2.798 12.365-7.324 16.893-4.733 4.732-11.044 7.34-17.77 7.34-5.173 0-10.101-1.542-14.253-4.407a25.016 25.016 0 0 1-5.416 8.077c-9.795 9.799-25.738 9.802-35.539.003l-6.761-6.761a24.983 24.983 0 0 1-5.245 7.667c-4.898 4.898-11.333 7.348-17.768 7.348-6.436 0-12.87-2.449-17.77-7.348l-68.007-68.005c-2.397 4.531-7.149 7.449-12.337 7.449-.902 0-1.817-.088-2.734-.271l-29.98-5.973a13.866 13.866 0 0 1-8.879-5.944zM212.837 85.478a12.259 12.259 0 0 0 3.73 8.669l20.414 19.898a12.266 12.266 0 0 0 8.6 3.485c3.318 0 6.43-1.293 8.767-3.646l41.212-41.599c2.333-2.344 3.614-5.452 3.605-8.751s-1.302-6.396-3.642-8.723c-2.33-2.316-5.421-3.592-8.744-3.592-3.285.011-6.374 1.298-8.719 3.646L245.432 87.8l-11.648-11.355c-2.314-2.25-5.368-3.489-8.662-3.489l-.114.001a12.261 12.261 0 0 0-8.674 3.735 12.27 12.27 0 0 0-3.497 8.786zm-2.816 94.856c-1.979 1.652-4.178 4.356-3.414 7.856l10.313 47.263c15.119-6.442 16.95-18.512 18.736-38.816.132-1.497.265-3.001.406-4.511.006-.063.013-.127.021-.189.627-5.302 3.746-9.372 8.558-11.167 9.229-3.442 23.15 2.445 38.201 16.157.106.097.209.196.31.299l68.494 69.492 14.362-14.361-17.193-86.3c-19.908 5.733-45.338 6.413-75.412-18.399-7.408-6.112-16.511-6.459-23.184-.888zm-64.281 73.281 75.061 75.059c3.559 3.561 9.352 3.561 12.91 0 1.712-1.711 2.654-4.004 2.654-6.455 0-2.452-.941-4.744-2.653-6.455l-20.251-20.251a8 8 0 0 1 11.314-11.314l43.568 43.57c3.56 3.559 9.352 3.557 12.911-.002 3.56-3.56 3.56-9.352 0-12.91l-40.68-40.681a8 8 0 0 1 11.314-11.314l53.894 53.895c1.71 1.712 4.003 2.653 6.454 2.653 2.452 0 4.745-.942 6.456-2.654 1.712-1.711 2.654-4.003 2.654-6.455s-.942-4.744-2.654-6.455l-51.004-51.004a8 8 0 0 1 11.314-11.314l51.004 51.004c3.56 3.561 9.351 3.558 12.912-.001 2.565-2.564 3.326-6.487 2.008-9.836l-73.017-74.081c-10.067-9.137-16.981-11.976-20.132-12.648l-.184 2.075c-1.938 22.023-4.135 46.986-38.696 55.503a7.998 7.998 0 0 1-9.731-6.062l-12.194-55.879c-1.9-8.715 1.304-17.298 8.793-23.55l9.664-8.068H164.39z" fill="#00ffff" opacity="1" data-original="#00ffff" class=""></path></g></svg>