<svg xmlns="http://www.w3.org/2000/svg" version="1.1" xmlns:xlink="http://www.w3.org/1999/xlink" width="512" height="512" x="0" y="0" viewBox="0 0 512 512" style="enable-background:new 0 0 512 512" xml:space="preserve" class="hovered-paths"><g><g fill-rule="evenodd"><path fill="#00ffff" d="M174.962 53.487h165.61c13.861 0 24.71-11.041 24.71-25.144 0-13.958-11.35-25.307-25.307-25.307-6.933 0-13.394 2.743-18.201 7.719-3.071 3.182-2.989 8.24.188 11.311 3.182 3.071 8.24 2.989 11.311-.188a9.24 9.24 0 0 1 6.702-2.84c5.13 0 9.305 4.166 9.305 9.305 0 5.304-3.655 9.142-8.707 9.142h-165.61a8 8 0 0 0-7.999 7.999c0 4.417 3.582 8.003 7.999 8.003zm251.499 117.199H293.332c-4.421 0-7.998 3.582-7.998 7.999s3.577 8.003 7.998 8.003h133.129c5.429 0 9.85 4.416 9.85 9.85s-4.421 9.85-9.85 9.85a9.905 9.905 0 0 1-7.439-3.389 7.98 7.98 0 0 0-11.277-.791 7.992 7.992 0 0 0-.791 11.287 25.858 25.858 0 0 0 19.507 8.891c14.262 0 25.852-11.601 25.852-25.848s-11.591-25.852-25.852-25.852zm47.824-98.029c-10.79 0-21.084 5.188-27.502 13.871-2.632 3.548-1.88 8.558 1.668 11.19a8 8 0 0 0 11.191-1.673c3.472-4.701 8.814-7.391 14.643-7.391 10.028 0 18.186 8.163 18.186 18.201s-8.158 18.191-18.186 18.191H211.951a8 8 0 0 0-8.003 7.999 8 8 0 0 0 8.003 7.999h262.333c18.847 0 34.188-15.337 34.188-34.189s-15.342-34.198-34.188-34.198zm-442.88 52.389a8 8 0 0 0 0 15.998h69.92c4.416 0 7.999-3.578 7.999-7.999s-3.582-7.999-7.999-7.999zM11.526 95.404c-4.416 0-7.998-3.577-7.998-7.998s3.582-7.999 7.998-7.999h393.899c10.028 0 18.186-8.163 18.186-18.191s-8.158-18.201-18.186-18.201c-5.834 0-11.171 2.7-14.643 7.391a8.016 8.016 0 0 1-11.191 1.683c-3.548-2.633-4.3-7.642-1.668-11.191 6.417-8.693 16.697-13.881 27.501-13.881 18.847 0 34.188 15.337 34.188 34.198s-15.342 34.188-34.188 34.188H11.526zM79.33 53.487h59.636c4.416 0 7.999-3.582 7.999-8.003s-3.582-7.999-7.999-7.999H79.33a8.002 8.002 0 1 0 0 16.002z" opacity="1" data-original="#ff695a" class=""></path><g fill="#2e3760"><path d="M263.748 344.815c2.025 11.943-.342 20.26-7.912 27.829-7.565 7.57-15.891 9.942-27.834 7.921-17.661-2.989-34.401 3.939-44.771 18.538-7.01 9.869-14.57 14.093-25.274 14.093s-18.268-4.224-25.279-14.093c-8.78-12.357-22.125-19.228-36.729-19.228-2.647 0-5.337.231-8.047.689-11.933 2.02-20.26-.337-27.829-7.921-7.57-7.56-9.932-15.887-7.912-27.829 2.989-17.661-3.939-34.401-18.548-44.767-9.869-7.01-14.083-14.57-14.083-25.283s4.214-18.259 14.083-25.269c14.609-10.38 21.537-27.11 18.548-44.781-2.025-11.938.342-20.26 7.912-27.829 7.565-7.569 15.886-9.942 27.834-7.912 17.661 2.994 34.401-3.939 44.772-18.548 7.01-9.869 14.57-14.078 25.279-14.078s18.263 4.209 25.274 14.078c10.376 14.609 27.11 21.542 44.776 18.548 11.938-2.03 20.26.342 27.829 7.912 7.57 7.57 9.932 15.891 7.912 27.829-2.989 17.671 3.939 34.401 18.543 44.781 9.884 7.01 14.093 14.57 14.093 25.269s-4.219 18.273-14.093 25.283c-14.604 10.366-21.532 27.106-18.543 44.767zm16.615 114.899-30.558-64.756c-7.309 2.449-15.419 2.907-24.474 1.379-11.46-1.943-22.323 2.56-29.054 12.039a69.308 69.308 0 0 1-3.153 4.06l25.939 72.62 21.262-25.611a8.03 8.03 0 0 1 6.904-2.849l33.133 3.119zM96.846 485.056l25.939-72.62a67.272 67.272 0 0 1-3.149-4.06c-6.73-9.479-17.593-13.982-29.058-12.039-9.05 1.538-17.164 1.08-24.474-1.379l-30.563 64.756 33.138-3.119a8.02 8.02 0 0 1 6.904 2.849l21.262 25.611zm194.717-171.97c14.011-9.951 20.819-22.482 20.819-38.32s-6.808-28.369-20.819-38.321c-9.479-6.731-13.982-17.588-12.039-29.058 2.869-16.942-1.181-30.621-12.372-41.811-11.2-11.2-24.879-15.25-41.821-12.381-11.46 1.953-22.323-2.546-29.054-12.029h-.005c-9.947-14.006-22.482-20.819-38.316-20.819s-28.374 6.812-38.321 20.819c-6.73 9.484-17.598 13.972-29.058 12.029-16.947-2.869-30.626 1.181-41.821 12.381-11.196 11.2-15.245 24.878-12.372 41.821 1.943 11.46-2.556 22.318-12.034 29.049-14.011 9.952-20.824 22.492-20.824 38.321s6.812 28.369 20.824 38.32c9.479 6.731 13.977 17.603 12.034 29.059-2.869 16.942 1.176 30.621 12.372 41.821a55.908 55.908 0 0 0 3.389 3.081l-37.067 78.531a7.996 7.996 0 0 0 .689 8.008 8.013 8.013 0 0 0 7.295 3.37l42.905-4.031 27.535 33.152a7.983 7.983 0 0 0 6.152 2.888 7.997 7.997 0 0 0 7.536-5.309l28.605-80.079c6.557 3.746 13.905 5.617 22.159 5.617s15.597-1.871 22.154-5.617l28.606 80.079a7.994 7.994 0 0 0 7.535 5.309 7.983 7.983 0 0 0 6.152-2.888l27.535-33.152 42.906 4.031a7.995 7.995 0 0 0 7.98-11.378l-37.062-78.531a54.432 54.432 0 0 0 3.39-3.081c11.2-11.2 15.24-24.878 12.372-41.821-1.943-11.456 2.56-22.328 12.039-29.059z" fill="#00ffff" opacity="1" data-original="#2e3760" class="hovered-path"></path><path d="M157.952 351.975c-42.573 0-77.205-34.632-77.205-77.21s34.632-77.21 77.205-77.21 77.21 34.642 77.21 77.21-34.632 77.21-77.21 77.21zm0-170.417c-51.392 0-93.207 41.821-93.207 93.207s41.816 93.212 93.207 93.212 93.212-41.811 93.212-93.212-41.816-93.207-93.212-93.207z" fill="#00ffff" opacity="1" data-original="#2e3760" class="hovered-path"></path><path d="M194.599 310.945c-12.536 13.312-31.253 17.622-51.237 12.502a173.98 173.98 0 0 0 35.683-25.973c3.211-3.037 3.356-8.1.323-11.306a7.985 7.985 0 0 0-11.306-.332 157.408 157.408 0 0 1-36.628 25.818c2.637-22 17.588-28.191 35.842-35.717 13.056-5.4 27.386-11.321 36.512-24.093 7.859 22.241 4.73 44.323-9.189 59.101zm7.868-86.101a7.991 7.991 0 0 0-6.596 6.07c-4.151 17.603-18.312 23.451-34.704 30.23-21.629 8.929-48.546 20.052-45.972 63.589a7.983 7.983 0 0 0 4.363 6.663c13.49 6.851 27.111 10.217 39.936 10.217 18.022 0 34.468-6.658 46.753-19.7 22.058-23.418 23.75-60.007 4.315-93.198a7.993 7.993 0 0 0-8.095-3.872z" fill="#00ffff" opacity="1" data-original="#2e3760" class="hovered-path"></path></g></g></g></svg>