<svg xmlns="http://www.w3.org/2000/svg" version="1.1" xmlns:xlink="http://www.w3.org/1999/xlink" width="512" height="512" x="0" y="0" viewBox="0 0 512 512" style="enable-background:new 0 0 512 512" xml:space="preserve" class=""><g><path d="M50.85 7.5H7.5v214.18h446.77M65.85 7.5H504.5v214.18h-35.23M281.765 385.412h-51.529c-8.284 0-15-6.716-15-15v-25.177c0-22.514 18.251-40.765 40.765-40.765s40.765 18.251 40.765 40.765v25.177c-.001 8.284-6.717 15-15.001 15zM296.765 446h-81.529v-15c0-8.284 6.716-15 15-15h51.529c8.284 0 15 6.716 15 15v15zM256 339.941V512M216 512v-9.941c0-8.284 6.716-15 15-15h50c8.284 0 15 6.716 15 15V512M512 360.59H296.76M215.24 360.59H0" style="stroke-width:15;stroke-miterlimit:10;" fill="none" stroke="#00ffff" stroke-width="15" stroke-miterlimit="10" data-original="#00ffff" class=""></path><path d="M28.353 360.587V504.5h30V390.587h395.294V504.5h30V360.587M55.5 253.941h110v75.353h-110zM110.5 329.294v31.293M346.5 253.941h110v75.353h-110zM401.5 329.294v31.293M319.956 7.5v214.176M504.5 114.588H319.956" style="stroke-width:15;stroke-miterlimit:10;" fill="none" stroke="#00ffff" stroke-width="15" stroke-miterlimit="10" data-original="#00ffff" class=""></path><circle cx="91.309" cy="83.676" r="40" style="stroke-width:15;stroke-miterlimit:10;" fill="none" stroke="#00ffff" stroke-width="15" stroke-miterlimit="10" data-original="#00ffff" class=""></circle><path d="M117.834 53.747 91.309 83.676" style="stroke-width:15;stroke-miterlimit:10;" fill="none" stroke="#00ffff" stroke-width="15" stroke-miterlimit="10" data-original="#00ffff" class=""></path><circle cx="222.309" cy="83.676" r="40" style="stroke-width:15;stroke-miterlimit:10;" fill="none" stroke="#00ffff" stroke-width="15" stroke-miterlimit="10" data-original="#00ffff" class=""></circle><path d="m195.784 113.606 26.525-29.93M51.309 175.676l40-17 32.279 17 31.765-34.088 26.956 34.088 26.737-19.875 32.072 27.081 40.235-41.294M370.184 114.588V76.647M412.228 114.588V59.706M454.272 114.588V43.676M392.5 164.676h15M422.5 164.676h15" style="stroke-width:15;stroke-miterlimit:10;" fill="none" stroke="#00ffff" stroke-width="15" stroke-miterlimit="10" data-original="#00ffff" class=""></path></g></svg>