<svg xmlns="http://www.w3.org/2000/svg" version="1.1" xmlns:xlink="http://www.w3.org/1999/xlink" width="512" height="512" x="0" y="0" viewBox="0 0 60 60" style="enable-background:new 0 0 512 512" xml:space="preserve" class=""><g><path d="M50.763 15.15A9.817 9.817 0 0 0 51 13a9.984 9.984 0 0 0-15.892-8.064A14.99 14.99 0 0 0 9 15v.186A11 11 0 0 0 11 37h38a11 11 0 0 0 1.763-21.85ZM49 35H11a9 9 0 0 1-.856-17.955 1 1 0 0 0 .9-1.051l-.017-.282C11.016 15.475 11 15.237 11 15a12.992 12.992 0 0 1 23.2-8.048 1 1 0 0 0 1.454.119A7.984 7.984 0 0 1 49 13a7.843 7.843 0 0 1-.471 2.68 1 1 0 0 0 .894 1.339A9 9 0 0 1 49 35ZM24.209 52.238a2.148 2.148 0 0 0 .285 2.3l3.853 4.68a2.141 2.141 0 0 0 3.306 0l3.852-4.681A2.162 2.162 0 0 0 34 51.008V42a2 2 0 0 0-2-2h-4a2 2 0 0 0-2 2v9.008a2.126 2.126 0 0 0-1.791 1.23Zm1.942.762H27a1 1 0 0 0 1-1V42h4v10a1 1 0 0 0 1 1h.857a.13.13 0 0 1 .128.088.152.152 0 0 1-.018.175l-3.853 4.681a.14.14 0 0 1-.216 0l-3.855-4.682a.152.152 0 0 1-.018-.175.131.131 0 0 1 .126-.087ZM7.209 51.238a2.148 2.148 0 0 0 .285 2.3l3.853 4.68a2.141 2.141 0 0 0 3.306 0l3.852-4.681A2.162 2.162 0 0 0 17 50.008V41a2 2 0 0 0-2-2h-4a2 2 0 0 0-2 2v9.008a2.126 2.126 0 0 0-1.791 1.23ZM9.151 52H10a1 1 0 0 0 1-1V41h4v10a1 1 0 0 0 1 1h.857a.13.13 0 0 1 .128.088.152.152 0 0 1-.018.175l-3.853 4.681a.14.14 0 0 1-.216 0l-3.861-4.678a.152.152 0 0 1-.018-.175.131.131 0 0 1 .132-.091ZM41.21 51.237a2.15 2.15 0 0 0 .285 2.3l3.853 4.68a2.14 2.14 0 0 0 3.305 0l3.847-4.676a2.149 2.149 0 0 0 .288-2.3A2.126 2.126 0 0 0 51 50.008V41a2 2 0 0 0-2-2h-4a2 2 0 0 0-2 2v9.008a2.128 2.128 0 0 0-1.79 1.229Zm1.81.853a.131.131 0 0 1 .132-.09h.853a1 1 0 0 0 1-1V41h4v10a1 1 0 0 0 1 1h.857a.13.13 0 0 1 .128.087.154.154 0 0 1-.019.176l-3.853 4.681a.139.139 0 0 1-.215 0l-3.854-4.681a.153.153 0 0 1-.029-.173Z" fill="#00ffff" opacity="1" data-original="#00ffff" class=""></path><path d="M21 17a2 2 0 0 1 2 2 1 1 0 0 0 2 0 4 4 0 0 0-8 0v6a4 4 0 0 0 8 0 1 1 0 0 0-2 0 2 2 0 0 1-4 0v-6a2 2 0 0 1 2-2ZM31 15a4 4 0 0 0-4 4v6a4 4 0 0 0 8 0v-6a4 4 0 0 0-4-4Zm2 10a2 2 0 0 1-4 0v-6a2 2 0 0 1 4 0ZM43 22a3 3 0 0 0-3-3 3.156 3.156 0 0 0-2.933 1.974.992.992 0 0 0 .561 1.277 1.008 1.008 0 0 0 1.3-.543A1.164 1.164 0 0 1 40 21a1 1 0 0 1 1 1c0 1.193-.949 2.012-1.955 2.879S37 26.643 37 28a1 1 0 0 0 1 1h4a1 1 0 0 0 0-2h-2.329c.209-.2.446-.4.68-.606C41.531 25.376 43 24.11 43 22Z" fill="#00ffff" opacity="1" data-original="#00ffff" class=""></path></g></svg>