<svg xmlns="http://www.w3.org/2000/svg" version="1.1" xmlns:xlink="http://www.w3.org/1999/xlink" width="512" height="512" x="0" y="0" viewBox="0 0 512 512" style="enable-background:new 0 0 512 512" xml:space="preserve" class=""><g transform="matrix(1.05,0,0,1.05,-12.800250244140614,-12.799749851226807)"><path d="M476.24 24.84H35.76C24.31 24.84 15 34.15 15 45.6v336.24c0 11.45 9.31 20.76 20.76 20.76h165.62v32.63l-23.33 12.12c-.69.36-1.38.71-2.06 1.05-6.5 3.29-15.41 7.78-15.41 18.51 0 11.16 9.08 20.24 20.24 20.24h150.37c11.16 0 20.24-9.08 20.24-20.24 0-10.73-8.91-15.23-15.41-18.51-.68-.35-1.37-.69-2.06-1.05l-23.33-12.12V402.6h165.62c11.45 0 20.76-9.31 20.76-20.76V45.6c-.01-11.45-9.32-20.76-20.77-20.76zm-440.48 12h440.48c4.83 0 8.76 3.93 8.76 8.76v286.36H27V45.6c0-4.83 3.93-8.76 8.76-8.76zM301.85 444.2l26.57 13.81c.73.38 1.46.75 2.18 1.11 6.73 3.4 8.82 4.92 8.82 7.8 0 4.54-3.7 8.24-8.24 8.24H180.82c-4.54 0-8.24-3.7-8.24-8.24 0-2.88 2.09-4.4 8.82-7.8l2.19-1.11 26.57-13.81a5.98 5.98 0 0 0 3.23-5.32V402.6h85.23v36.28a5.98 5.98 0 0 0 3.23 5.32zm174.39-53.6H35.76c-4.83 0-8.76-3.93-8.76-8.76v-37.88h458v37.88c0 4.83-3.93 8.76-8.76 8.76zM121.12 270.83c20.34 0 36.89-16.55 36.89-36.89s-16.55-36.89-36.89-36.89-36.89 16.55-36.89 36.89 16.55 36.89 36.89 36.89zm0-61.79c13.73 0 24.89 11.17 24.89 24.89s-11.17 24.89-24.89 24.89-24.89-11.17-24.89-24.89 11.16-24.89 24.89-24.89zm-70.28 44.72h11.9c.86 2.53 1.9 5.03 3.08 7.43l-8.42 8.42c-2.1 2.1-3.26 4.91-3.26 7.89s1.16 5.78 3.26 7.89l12.26 12.26c2.1 2.11 4.91 3.26 7.89 3.26s5.78-1.16 7.89-3.26l8.42-8.42c2.4 1.19 4.9 2.22 7.43 3.08v11.9c0 6.15 5 11.15 11.15 11.15h17.35c6.15 0 11.15-5 11.15-11.15v-11.9c2.53-.86 5.03-1.9 7.43-3.08l8.42 8.42c2.1 2.1 4.91 3.26 7.89 3.26s5.78-1.16 7.89-3.26l12.27-12.27c4.35-4.35 4.35-11.42 0-15.77l-8.42-8.42c1.19-2.4 2.22-4.9 3.08-7.43h11.9c6.15 0 11.15-5 11.15-11.15v-17.34c0-6.15-5-11.15-11.15-11.15h-11.9c-.86-2.53-1.9-5.03-3.08-7.43l8.42-8.42c2.1-2.1 3.26-4.91 3.26-7.89s-1.16-5.78-3.26-7.89l-12.26-12.26c-2.1-2.11-4.91-3.26-7.89-3.26s-5.78 1.16-7.89 3.26l-8.42 8.42c-2.4-1.19-4.89-2.22-7.43-3.08v-11.9c0-6.15-5-11.15-11.15-11.15h-17.35c-6.15 0-11.15 5-11.15 11.15v11.9c-2.53.86-5.03 1.9-7.43 3.08l-8.42-8.42c-2.1-2.1-4.91-3.26-7.89-3.26s-5.78 1.16-7.89 3.26L57.4 182.48c-2.1 2.1-3.26 4.91-3.26 7.89s1.16 5.78 3.26 7.89l8.42 8.42c-1.19 2.4-2.22 4.9-3.08 7.43h-11.9c-6.15 0-11.15 5-11.15 11.15v17.34c-.01 6.16 5 11.16 11.15 11.16zm.84-27.65h11.66c4.83 0 9.09-3.08 10.6-7.67.77-2.36 1.74-4.67 2.86-6.89a11.14 11.14 0 0 0-2.06-12.93l-8.25-8.25 11.07-11.07 8.25 8.25c3.42 3.42 8.61 4.25 12.93 2.06a50.52 50.52 0 0 1 6.89-2.86c4.59-1.51 7.67-5.77 7.67-10.6V164.5h15.65v11.66c0 4.83 3.08 9.09 7.67 10.6a50 50 0 0 1 6.89 2.86 11.14 11.14 0 0 0 12.93-2.06l8.25-8.25 11.07 11.07-8.25 8.25a11.123 11.123 0 0 0-2.06 12.93 50.52 50.52 0 0 1 2.86 6.89c1.51 4.59 5.77 7.67 10.6 7.67h11.66v15.65h-11.66c-4.83 0-9.09 3.08-10.6 7.67a49.79 49.79 0 0 1-2.86 6.89 11.125 11.125 0 0 0 2.06 12.93l8.25 8.25-11.07 11.07-8.25-8.25a11.125 11.125 0 0 0-12.93-2.06 50.52 50.52 0 0 1-6.89 2.86 11.135 11.135 0 0 0-7.67 10.6v11.66H113.3v-11.66c0-4.83-3.08-9.09-7.67-10.6-2.36-.77-4.67-1.74-6.89-2.86a11.14 11.14 0 0 0-12.93 2.06l-8.25 8.25-11.07-11.08 8.25-8.25c3.42-3.42 4.25-8.62 2.06-12.93a51.05 51.05 0 0 1-2.86-6.89 11.135 11.135 0 0 0-10.6-7.67H51.68zm167.04-80.25v132.29c0 3.31 2.69 6 6 6h42.31c3.31 0 6-2.69 6-6V145.86c0-3.31-2.69-6-6-6h-42.31c-3.31 0-6 2.68-6 6zm12 6h30.31v120.29h-30.31zm56.97 132.29H330c3.31 0 6-2.69 6-6V102.41c0-3.31-2.69-6-6-6h-42.31c-3.31 0-6 2.69-6 6v175.74c0 3.32 2.68 6 6 6zm6-175.74H324v163.74h-30.31zm56.96 175.74h42.31c3.31 0 6-2.69 6-6v-95.28c0-3.31-2.69-6-6-6h-42.31c-3.31 0-6 2.69-6 6v95.28c0 3.32 2.69 6 6 6zm6-95.28h30.31v83.28h-30.31zm56.96 95.28h42.31c3.31 0 6-2.69 6-6v-136.6c0-3.31-2.69-6-6-6h-42.31c-3.31 0-6 2.69-6 6v136.6c0 3.32 2.69 6 6 6zm6-136.6h30.31v124.6h-30.31zM215.9 300.75h253.5c3.31 0 6 2.69 6 6s-2.69 6-6 6H215.9c-3.31 0-6-2.69-6-6s2.68-6 6-6zM76.73 65.61c0-3.31 2.69-6 6-6h97.77c3.31 0 6 2.69 6 6s-2.69 6-6 6H82.73c-3.31 0-6-2.69-6-6zm-22.39 4.24a6.012 6.012 0 0 1-1.76-4.24c0-.39.04-.79.12-1.17.07-.39.19-.76.34-1.13.15-.36.33-.71.55-1.03.22-.33.47-.64.74-.91.28-.28.59-.53.92-.75.32-.22.67-.4 1.03-.55.37-.15.74-.27 1.13-.34.77-.16 1.57-.16 2.34 0 .38.07.76.19 1.12.34.37.15.71.33 1.04.55s.63.47.91.75c.28.27.53.58.75.91.21.33.4.67.55 1.03.15.37.26.75.34 1.13s.12.78.12 1.17a6.012 6.012 0 0 1-6 6 6.03 6.03 0 0 1-4.24-1.76zm22.39 21.09c0-3.31 2.69-6 6-6h134.23c3.31 0 6 2.69 6 6s-2.69 6-6 6H82.73c-3.31 0-6-2.69-6-6zm-22.39 4.24a6.03 6.03 0 0 1-1.76-4.24c0-.39.04-.79.12-1.17.07-.38.19-.76.34-1.12.15-.37.33-.71.55-1.04s.47-.64.75-.91c.27-.28.58-.53.91-.75.32-.22.67-.4 1.03-.55.37-.15.74-.27 1.13-.34.77-.16 1.57-.16 2.34 0 .38.07.76.19 1.12.34s.71.33 1.04.55.63.47.91.75c.28.27.53.58.75.91.21.33.4.67.55 1.04.15.36.26.74.34 1.12s.12.78.12 1.17a6.03 6.03 0 0 1-2.67 4.99c-.33.21-.67.4-1.04.55-.36.15-.74.26-1.12.34a5.809 5.809 0 0 1-2.34 0 6.39 6.39 0 0 1-1.13-.34c-.36-.15-.71-.34-1.03-.55-.33-.22-.64-.47-.91-.75zm22.39 21.09c0-3.31 2.69-6 6-6h67.12c3.31 0 6 2.69 6 6s-2.69 6-6 6H82.73c-3.32 0-6-2.69-6-6zm-22.39 4.24c-1.12-1.11-1.76-2.66-1.76-4.24a6.012 6.012 0 0 1 6-6c1.58 0 3.12.64 4.24 1.76.28.27.53.58.75.91.21.32.4.67.55 1.03.15.37.26.74.34 1.13.08.38.12.78.12 1.17a6.012 6.012 0 0 1-6 6c-.39 0-.79-.04-1.17-.12a5.65 5.65 0 0 1-1.13-.34c-.36-.15-.71-.34-1.03-.55-.33-.22-.64-.47-.91-.75z" fill="#00ffff" opacity="1" data-original="#00ffff" class=""></path></g></svg>