<svg xmlns="http://www.w3.org/2000/svg" version="1.1" xmlns:xlink="http://www.w3.org/1999/xlink" width="512" height="512" x="0" y="0" viewBox="0 0 128 128" style="enable-background:new 0 0 512 512" xml:space="preserve" class=""><g transform="matrix(1.1800ffff00ffff06,0,0,1.1800ffff00ffff06,-10.6200ffff0000047,-12.28500ffff00004)"><path fill="#ffffff" d="M99.9 30.9v6.9h-4.4v17.4h8.5V37.8h-4.1" opacity="0" data-original="#a5a4aa" class=""></path><path fill="#ffffff" d="M22.5 116V29.2c0-4.8 3.8-8.7 8.6-8.7h43c4.7 0 8.6 3.9 8.6 8.7V116" opacity="0" data-original="#ffffff" class=""></path><path fill="#ffffff" d="M68.1 59.5H37.2c-2.4 0-4.3-1.9-4.3-4.3v-20c0-2.4 1.9-4.3 4.3-4.3h30.9c2.4 0 4.3 1.9 4.3 4.3v20c0 2.4-2 4.3-4.3 4.3z" opacity="0" data-original="#ffffff" class=""></path><path fill="#00ffff" d="M82.7 119c-1.7 0-3-1.3-3-3V29.2c0-3.1-2.5-5.7-5.6-5.7h-43c-3.1 0-5.6 2.5-5.6 5.7V116c0 1.7-1.3 3-3 3s-3-1.3-3-3V29.2c0-6.4 5.2-11.7 11.6-11.7h43c6.4 0 11.6 5.2 11.6 11.7V116c0 1.7-1.4 3-3 3z" opacity="1" data-original="#454b54" class=""></path><path fill="#7ca5c6" d="M68.1 59.5H37.2c-2.4 0-4.3-1.9-4.3-4.3v-20c0-2.4 1.9-4.3 4.3-4.3h30.9c2.4 0 4.3 1.9 4.3 4.3v20c0 2.4-2 4.3-4.3 4.3z" opacity="0" data-original="#7ca5c6" class=""></path><path fill="#00ffff" d="M68.1 62.5H37.2c-4 0-7.3-3.3-7.3-7.3v-20c0-4 3.3-7.3 7.3-7.3h30.9c4 0 7.3 3.3 7.3 7.3v20c0 4-3.3 7.3-7.3 7.3zM37.2 33.9c-.7 0-1.3.6-1.3 1.3v20c0 .7.6 1.3 1.3 1.3h30.9c.7 0 1.3-.6 1.3-1.3v-20c0-.7-.6-1.3-1.3-1.3zM91.3 119H14c-1.7 0-3-1.3-3-3s1.3-3 3-3h77.3c1.7 0 3 1.3 3 3s-1.4 3-3 3zM95.6 110.2c-4 0-7.3-3.3-7.3-7.3V68.2c0-.7-.6-1.3-1.3-1.3h-4.3c-1.7 0-3-1.3-3-3s1.3-3 3-3H87c4 0 7.3 3.3 7.3 7.3v34.7c0 .7.6 1.3 1.3 1.3s1.3-.6 1.3-1.3V55.2c0-1.7 1.3-3 3-3s3 1.3 3 3v47.7c0 4-3.3 7.3-7.3 7.3z" opacity="1" data-original="#454b54" class=""></path><path fill="#00ffff" d="M104 58.2h-8.6c-1.7 0-3-1.3-3-3V37.8c0-1.7 1.3-3 3-3h1.4v-3.9c0-1.7 1.3-3 3-3s3 1.3 3 3v3.9h1.2c1.7 0 3 1.3 3 3v17.3c0 1.7-1.3 3.1-3 3.1zm-5.5-6h2.6V40.8h-2.6z" opacity="1" data-original="#454b54" class=""></path><path fill="#00ffff" d="M48.5 105c-.5 0-1.1-.1-1.6-.4-1.4-.9-1.8-2.7-1-4.1l5-8.1-3.7.6c-1.2.2-2.3-.3-2.9-1.3s-.7-2.2 0-3.2l8.4-13.6c.9-1.4 2.7-1.8 4.1-1 1.4.9 1.8 2.7 1 4.1l-5 8.1 3.7-.6c1.2-.2 2.3.3 2.9 1.3s.7 2.2 0 3.2L51 103.5c-.6 1-1.5 1.5-2.5 1.5z" opacity="1" data-original="#7ca4c5" class=""></path></g></svg>