<svg xmlns="http://www.w3.org/2000/svg" version="1.1" xmlns:xlink="http://www.w3.org/1999/xlink" width="512" height="512" x="0" y="0" viewBox="0 0 512 512" style="enable-background:new 0 0 512 512" xml:space="preserve" class=""><g transform="matrix(1.05,0,0,1.05,-12.799640512466453,-12.802919673919689)"><path fill-rule="evenodd" d="M133.74 405.91c-2.41-8.98-7.16-16.08-14.15-21.1L66.14 346.3c-5.74-4.13-9.68-10.09-11.72-17.7l-25.87-96.55c-1.38-5.13-1.05-10.36.91-14.72 1.78-3.95 4.7-6.64 8.22-7.58 3.52-.95 7.4-.07 10.91 2.46 3.88 2.79 6.77 7.15 8.15 12.3l19.59 72.83c-2.92 5.97-3.71 12.7-2.13 18.79 1.77 6.82 6.3 12.49 13.08 16.41l51.26 29.6c.92.53 1.93.78 2.92.78a5.84 5.84 0 0 0 5.07-2.93c1.62-2.8.66-6.38-2.14-8l-51.26-29.6c-4.06-2.35-6.62-5.45-7.61-9.22-.99-3.81-.27-8.18 1.99-11.97.02-.03.05-.05.07-.08 3.65-6 11.35-11.04 20.99-5.47l69.71 40.25c5.53 3.19 9.02 7.74 10.68 13.91l16.64 62.1-65.54 17.57zM82.95 225.36c-5.59 0-10.29 4-11.33 9.4l13.91 51.72c2.69-1.91 5.74-3.32 9.01-4.13v-45.4c-.01-6.39-5.21-11.59-11.59-11.59zm40.18 31.01c.17-6.39-4.89-11.72-11.28-11.89-1.95-.02-3.88.45-5.61 1.34v36.44c2.69.62 5.43 1.67 8.19 3.26l7.81 4.51zM244.1 419.66c-2.49-9.29-12.09-14.83-21.38-12.34l-5.82 1.56-16.64-62.1c-2.46-9.2-7.89-16.26-16.13-21.02l-50.37-29.08 1.06-40c.34-12.84-9.83-23.56-22.67-23.91-2.11-.07-4.18.25-6.2.76-1.66-11.23-11.33-19.88-23.01-19.88-5.95 0-11.43 2.24-15.57 5.96-2.26-6.92-6.39-12.91-11.95-16.92-6.42-4.63-13.8-6.13-20.79-4.27-6.98 1.87-12.62 6.87-15.86 14.09-3.07 6.81-3.61 14.82-1.54 22.55l25.87 96.55c2.76 10.28 8.2 18.41 16.19 24.17l53.46 38.51c4.8 3.45 7.97 8.24 9.68 14.63l6.31 23.57-5.82 1.56c-9.29 2.49-14.83 12.08-12.34 21.37l7.4 27.62c1.21 4.49 4.1 8.25 8.14 10.58 2.7 1.56 5.69 2.36 8.71 2.36 1.51 0 3.03-.2 4.52-.6l99.8-26.74c4.49-1.2 8.25-4.09 10.59-8.14 2.33-4.05 2.96-8.75 1.76-13.24zm239.36-187.61-25.87 96.55c-2.04 7.61-5.98 13.57-11.72 17.7l-53.47 38.5c-6.98 5.03-11.74 12.13-14.14 21.1l-6.32 23.56-65.54-17.56 16.64-62.1c1.65-6.17 5.14-10.72 10.68-13.91l69.71-40.25c9.64-5.57 17.33-.53 20.99 5.47.02.03.05.05.07.08 2.25 3.8 2.98 8.16 1.99 11.97-.98 3.77-3.54 6.88-7.6 9.22l-51.26 29.6c-2.8 1.61-3.76 5.2-2.14 8a5.84 5.84 0 0 0 5.07 2.93c.99 0 2-.25 2.92-.78l51.26-29.6c6.78-3.92 11.3-9.59 13.08-16.41 1.58-6.09.79-12.81-2.13-18.79l19.59-72.84c1.38-5.13 4.27-9.5 8.15-12.29 3.52-2.53 7.4-3.4 10.91-2.46 3.52.94 6.44 3.63 8.22 7.58 1.96 4.37 2.28 9.59.91 14.73zm-94.59 24.32.89 33.65 7.81-4.51c2.75-1.59 5.5-2.64 8.19-3.26v-36.44a11.78 11.78 0 0 0-5.61-1.33c-6.39.17-11.45 5.5-11.28 11.89zm40.18-31.01c-6.39 0-11.59 5.2-11.59 11.59v45.4c3.27.81 6.32 2.22 9.01 4.13l13.91-51.72c-1.04-5.4-5.73-9.4-11.33-9.4zm64.17-12.83c-3.25-7.22-8.89-12.22-15.87-14.09s-14.37-.35-20.79 4.27c-5.56 4-9.69 10-11.95 16.92a23.223 23.223 0 0 0-15.56-5.96c-11.69 0-21.36 8.66-23.02 19.89-2.02-.5-4.08-.83-6.2-.78-12.84.34-23.01 11.07-22.67 23.91l1.06 40-50.37 29.08c-8.24 4.76-13.67 11.82-16.13 21.02l-16.64 62.1-5.82-1.56c-4.49-1.2-9.19-.57-13.24 1.76-4.04 2.34-6.93 6.1-8.14 10.58l-7.4 27.62c-1.2 4.49-.58 9.19 1.75 13.24 2.34 4.04 6.1 6.93 10.59 8.14l99.8 26.74c1.5.4 3.01.6 4.52.6 3.03 0 6.01-.8 8.71-2.36a17.38 17.38 0 0 0 8.14-10.58l7.4-27.62c2.49-9.29-3.05-18.88-12.34-21.38l-5.82-1.56 6.31-23.57c1.71-6.39 4.88-11.17 9.68-14.63l53.46-38.51c7.99-5.75 13.43-13.89 16.19-24.17l25.87-96.55c2.09-7.74 1.55-15.74-1.52-22.55zm-245.21-69.19c8.84-8.47 18.6-17.8 24.78-31.92 10.2 21.8 12.7 40.6 7.41 56.02-4.98 14.53-17.25 26.73-36.35 36.42 2.38-7.6 6.81-13.93 12.07-21.34 5.43-7.65 11.59-16.32 16.33-28.05 1.21-3-.24-6.41-3.23-7.62-3-1.22-6.41.23-7.62 3.23-4.23 10.46-9.71 18.19-15.02 25.65-4.71 6.63-9.24 13.07-12.29 20.65-11.81-28.27-1.2-38.56 13.92-53.04zm-9.58 75.95c28.13-11.65 45.91-27.83 52.85-48.06 7.39-21.55 2.45-47.75-14.69-77.87a5.86 5.86 0 0 0-5.99-2.89c-2.4.37-4.32 2.2-4.82 4.57-4 18.91-15.11 29.54-25.86 39.83-18.31 17.53-35.61 34.08-8.83 81.86 1.36 2.45 4.83 3.82 7.34 2.56zm-121.5-64.22c0-3.23 2.62-5.85 5.85-5.85h12.86a5.851 5.851 0 0 1 0 11.7h-12.86c-3.23 0-5.85-2.62-5.85-5.85zm18.63-69.54c1.61-2.8 5.19-3.76 8-2.14l11.14 6.44a5.852 5.852 0 0 1 2.14 8 5.844 5.844 0 0 1-5.08 2.93c-.99 0-2-.25-2.92-.78l-11.14-6.44c-2.8-1.63-3.76-5.21-2.14-8.01zm48.76-42.9a5.855 5.855 0 0 1 2.14-8 5.852 5.852 0 0 1 8 2.14l6.43 11.14c1.62 2.8.66 6.38-2.14 8-.92.53-1.93.79-2.92.79a5.84 5.84 0 0 1-5.07-2.93zm192.03 106.58h12.86a5.851 5.851 0 0 1 0 11.7h-12.86c-3.23 0-5.85-2.62-5.85-5.85 0-3.22 2.62-5.85 5.85-5.85zm-21.19-51.39a5.863 5.863 0 0 1 2.14-8l11.14-6.43a5.855 5.855 0 1 1 5.86 10.14l-11.14 6.43a5.844 5.844 0 0 1-8-2.14zm-44.05-49.91 6.43-11.14c1.61-2.8 5.19-3.76 8-2.14 2.8 1.62 3.76 5.2 2.14 8l-6.43 11.14a5.865 5.865 0 0 1-5.08 2.93c-.99 0-2-.26-2.92-.79a5.855 5.855 0 0 1-2.14-8zm-60.97-13.19V21.85a5.851 5.851 0 0 1 11.7 0v12.87a5.851 5.851 0 0 1-11.7 0zm-37.82 255.57h87.35c-.57 6.9-6.31 12.36-13.35 12.36h-60.64c-7.05 0-12.78-5.46-13.36-12.36zm-16.13-70.79c9.03 8.38 14.36 18.97 15.68 30.89h88.26c1.32-11.91 6.65-22.51 15.68-30.89 17.86-16.59 28.11-40.07 28.11-64.43 0-48.47-39.44-87.91-87.92-87.91s-87.91 39.44-87.91 87.91c0 24.36 10.24 47.84 28.1 64.43zm16.02 42.6h87.57v16.49h-87.57zm36.54 84.08h14.49c15.95 0 28.93-12.97 28.93-28.93v-3.61c11.06-2.65 19.32-12.59 19.32-24.46v-32.94c0-11.12 4.13-20.6 12.28-28.17 20.24-18.8 31.85-45.41 31.85-73.01 0-54.93-44.69-99.62-99.62-99.62s-99.62 44.69-99.62 99.62c0 27.6 11.61 54.21 31.84 73.01 8.15 7.57 12.28 17.04 12.28 28.17v32.94c0 11.86 8.26 21.81 19.32 24.46v3.61c.01 15.95 12.98 28.93 28.93 28.93z" clip-rule="evenodd" fill="#00ffff" opacity="1" data-original="#00ffff" class=""></path></g></svg>