<svg xmlns="http://www.w3.org/2000/svg" version="1.1" xmlns:xlink="http://www.w3.org/1999/xlink" width="512" height="512" x="0" y="0" viewBox="0 0 512 512" style="enable-background:new 0 0 512 512" xml:space="preserve" class=""><g transform="matrix(1.04,0,0,1.04,-10.2400ffff00ffff9,-10.2400ffff00ffff9)"><path d="M187.585 425.774a4 4 0 0 0 .129-3.259l-16-40a4 4 0 0 0-4.112-2.5l-11.138 1.114a206.235 206.235 0 0 1-40.927 0L104.4 380.02a4.005 4.005 0 0 0-4.112 2.5l-16 40a4 4 0 0 0 2.644 5.339l10.3 2.862a144.874 144.874 0 0 0 77.54 0l10.3-2.862a4 4 0 0 0 2.513-2.085zM68 348h12a4 4 0 0 0 4-4v-20a64.4 64.4 0 0 0-12.8-38.4A4 4 0 0 0 64 288v56a4 4 0 0 0 4 4zM71.2 410.4A64.4 64.4 0 0 0 84 372v-12a4 4 0 0 0-4-4H68a4 4 0 0 0-4 4v48a4 4 0 0 0 7.2 2.4zM200 288a4 4 0 0 0-7.2-2.4A64.4 64.4 0 0 0 180 324v20a4 4 0 0 0 4 4h12a4 4 0 0 0 4-4zM196 356h-12a4 4 0 0 0-4 4v12a64.4 64.4 0 0 0 12.8 38.4 4 4 0 0 0 7.2-2.4v-48a4 4 0 0 0-4-4zM198.4 252.8 192 248a100 100 0 0 0-120 0l-6.4 4.8a4 4 0 0 0-1.031 5.258l24 40a4 4 0 0 0 4.915 1.656 103.257 103.257 0 0 1 77.03 0 4 4 0 0 0 4.915-1.656l24-40a4 4 0 0 0-1.029-5.258z" fill="#00ffff" opacity="1" data-original="#00ffff" class=""></path><path d="M220 260h-4v-76a44.049 44.049 0 0 0-44-44H92a44.049 44.049 0 0 0-44 44v76h-4a20.023 20.023 0 0 0-20 20 4 4 0 0 0 4 4h20v150a34.038 34.038 0 0 0 34 34h100a34.038 34.038 0 0 0 34-34V284h20a4 4 0 0 0 4-4 20.023 20.023 0 0 0-20-20zm-12 174a26.029 26.029 0 0 1-26 26H82a26.029 26.029 0 0 1-26-26V184a36.04 36.04 0 0 1 36-36h80a36.04 36.04 0 0 1 36 36z" fill="#00ffff" opacity="1" data-original="#00ffff" class=""></path><path d="M138.4 172h-12.8A61.67 61.67 0 0 0 64 233.6a4 4 0 1 0 8 0 53.661 53.661 0 0 1 53.6-53.6h12.8a53.661 53.661 0 0 1 53.6 53.6 4 4 0 1 0 8 0 61.67 61.67 0 0 0-61.6-61.6zM69.781 172.928a4 4 0 0 0 5.547-1.11A17.526 17.526 0 0 1 89.938 164H97.6a4 4 0 1 0 0-8h-7.662a25.507 25.507 0 0 0-21.266 11.381 4 4 0 0 0 1.109 5.547zM166.4 164h7.663a17.525 17.525 0 0 1 14.609 7.818 4 4 0 1 0 6.656-4.437A25.507 25.507 0 0 0 174.063 156H166.4a4 4 0 1 0 0 8zM196 432a12.013 12.013 0 0 1-12 12h-3.2a4 4 0 1 0 0 8h3.2a20.023 20.023 0 0 0 20-20 4 4 0 0 0-8 0zM91.2 444H88a12.013 12.013 0 0 1-12-12 4 4 0 0 0-8 0 20.023 20.023 0 0 0 20 20h3.2a4 4 0 1 0 0-8z" fill="#00ffff" opacity="1" data-original="#00ffff" class=""></path><circle cx="375.941" cy="76" r="4" fill="#00ffff" opacity="1" data-original="#00ffff" class=""></circle><path d="M387.255 68.687a4 4 0 0 0 2.828-6.829 20 20 0 0 0-28.284 0 4 4 0 1 0 5.656 5.657 12 12 0 0 1 16.972 0 3.985 3.985 0 0 0 2.828 1.172z" fill="#00ffff" opacity="1" data-original="#00ffff" class=""></path><path d="M401.4 56.2a4 4 0 0 0 0-5.657 36 36 0 0 0-50.911 0 4 4 0 1 0 5.657 5.656 28 28 0 0 1 39.6 0 4 4 0 0 0 5.654.001z" fill="#00ffff" opacity="1" data-original="#00ffff" class=""></path><path d="M344.828 44.887a44 44 0 0 1 62.226 0 4 4 0 0 0 5.656-5.657 52 52 0 0 0-73.538 0 4 4 0 0 0 5.656 5.657z" fill="#00ffff" opacity="1" data-original="#00ffff" class=""></path><rect width="232" height="24" x="20" y="92" rx="4" fill="#00ffff" opacity="1" data-original="#00ffff" class=""></rect><rect width="232" height="24" x="260" y="92" rx="4" fill="#00ffff" opacity="1" data-original="#00ffff" class=""></rect><path d="M248 123a4 4 0 0 0-4 4v361a4 4 0 0 0 8 0V127a4 4 0 0 0-4-4zM264 123a4 4 0 0 0-4 4v361a4 4 0 0 0 8 0V127a4 4 0 0 0-4-4zM496 123a4 4 0 0 0-4 4v361a4 4 0 0 0 8 0V127a4 4 0 0 0-4-4zM16 123a4 4 0 0 0-4 4v361a4 4 0 0 0 8 0V127a4 4 0 0 0-4-4zM136 84a32 32 0 1 0-32-32 32.036 32.036 0 0 0 32 32zm0-56a24 24 0 1 1-24 24 24.028 24.028 0 0 1 24-24z" fill="#00ffff" opacity="1" data-original="#00ffff" class=""></path><path d="M150.833 56.333a4 4 0 0 0 0-8h-31a4 4 0 0 0 0 8zM384 204h-68v184h24v-80h43.127c28.474 0 52.323-22.526 52.863-50.995A52.057 52.057 0 0 0 384 204zm0 80h-44v-56h44a28 28 0 0 1 0 56z" fill="#00ffff" opacity="1" data-original="#00ffff" class=""></path></g></svg>