<svg xmlns="http://www.w3.org/2000/svg" version="1.1" xmlns:xlink="http://www.w3.org/1999/xlink" width="512" height="512" x="0" y="0" viewBox="0 0 500 500" style="enable-background:new 0 0 512 512" xml:space="preserve" class=""><g transform="matrix(1.1099999999999992,0,0,1.1099999999999992,-27.50010784149157,-27.50005958557108)"><path fill-rule="evenodd" d="M367.505 106.184a6.85 6.85 0 0 1 6.854-6.856l47.123-.001a6.85 6.85 0 0 1 6.854 6.856l.001 47.12a6.852 6.852 0 0 1-6.854 6.85 6.853 6.853 0 0 1-6.857-6.85l-.001-40.264-40.266.001a6.857 6.857 0 0 1-6.854-6.856zm-295.85 47.127-.001-47.12a6.85 6.85 0 0 1 6.854-6.856l47.123-.001a6.857 6.857 0 0 1 .001 13.712l-40.266.001.001 40.264c0 3.783-3.07 6.85-6.856 6.85s-6.856-3.067-6.856-6.85zm357.379 150.221-34.465 11.195a6.85 6.85 0 0 0-4.521 4.817 143.554 143.554 0 0 1-15.526 37.439 6.856 6.856 0 0 0-.207 6.602l16.462 32.31-28.355 28.354-32.311-16.46a6.859 6.859 0 0 0-6.602.214 143.704 143.704 0 0 1-37.439 15.521 6.864 6.864 0 0 0-4.815 4.523l-11.199 34.471-40.101.001-11.201-34.47a6.844 6.844 0 0 0-4.815-4.517 143.98 143.98 0 0 1-37.439-15.525 6.833 6.833 0 0 0-6.604-.213l-32.308 16.462-28.359-28.353 16.463-32.311a6.85 6.85 0 0 0-.207-6.602 143.615 143.615 0 0 1-15.524-37.439 6.85 6.85 0 0 0-4.522-4.817l-34.47-11.193v-13.198l66.592-.002c3.555 58.937 52.631 105.79 112.445 105.788 59.814-.001 108.887-46.857 112.439-105.794l66.592-.002zm-323.693-96.651.002 69.749 21.583-.001-.001-36.434c0-8.26 6.719-14.983 14.976-14.983l30.321-.001c8.26 0 14.979 6.723 14.979 14.982l.001 36.434 21.58-.001-.002-69.749-51.72-52.952zM264.299 68.637l.001 28.157-68.394 29.216-.001-28.163zm54.549 55.199L278.01 97.58l-.001-26.771 40.838 26.262zm-96.354 134.921 41.809-17.854.001 35.724-41.81.001zm41.807-103.99.001 28.163-42.507 18.155a6.86 6.86 0 0 0-1.254-1.796l-17.8-18.228zm-.001-14.907-68.394 29.222-.001-28.163 68.394-29.216zm54.549 27.041-.001-26.771-40.838-26.25.001 26.765zm.003 86.13-40.838-26.256-.001-26.765 40.838 26.262zm-.001-43.065-41.235-26.51h.397l-.001-26.517L318.85 183.2zm-96.359 5.732.001 28.152 41.809-17.86-.001-28.151zm55.522 60.928 40.838-.001v-7.295l-40.838-26.25zm70.683 13.71-197.394.005c3.534 51.365 46.448 92.078 98.7 92.076 52.25-.001 95.162-40.716 98.694-92.081zm-175.205-13.708-32.857.001-.001-36.434c0-.687.582-1.271 1.268-1.271l30.321-.001c.688 0 1.268.583 1.268 1.271zM384.8 157.594l-52.242.001.003 119.029 56.651-.001-.003-114.611c-.001-2.396-2.02-4.418-4.409-4.418zm51.087 119.028-32.965.001-.003-114.611c0-9.992-8.129-18.124-18.12-18.124l-52.242.001-.001-50.568a6.865 6.865 0 0 0-3.147-5.77l-51.4-33.036-.001-23.883c0-3.789-3.071-6.862-6.857-6.862s-6.854 3.073-6.854 6.862l.001 23.092-77.942 33.294a6.863 6.863 0 0 0-4.163 6.307l.002 66.706-20.232-20.712c-2.686-2.748-7.121-2.746-9.807 0l-58.574 59.972a6.857 6.857 0 0 0-1.951 4.788l.002 72.551-27.521.001a6.859 6.859 0 0 0-6.856 6.856l.001 25.033a6.849 6.849 0 0 0 4.738 6.521l35.673 11.586a157.238 157.238 0 0 0 14.12 34.048l-17.036 33.437a6.859 6.859 0 0 0 1.261 7.965l35.401 35.394a6.837 6.837 0 0 0 7.96 1.265l33.437-17.039a156.715 156.715 0 0 0 34.051 14.121l11.591 35.677a6.857 6.857 0 0 0 6.52 4.736l50.062-.001a6.855 6.855 0 0 0 6.521-4.737l11.591-35.678a157.291 157.291 0 0 0 34.05-14.123l33.437 17.038a6.839 6.839 0 0 0 7.96-1.265l35.399-35.395a6.859 6.859 0 0 0 1.261-7.965l-17.037-33.436a157.303 157.303 0 0 0 14.123-34.049l35.668-11.587a6.849 6.849 0 0 0 4.738-6.521l-.001-25.033a6.861 6.861 0 0 0-6.858-6.857z" clip-rule="evenodd" fill="#00ffff" opacity="1" data-original="#00ffff" class=""></path></g></svg>