<svg xmlns="http://www.w3.org/2000/svg" version="1.1" xmlns:xlink="http://www.w3.org/1999/xlink" width="512" height="512" x="0" y="0" viewBox="0 0 64 64" style="enable-background:new 0 0 512 512" xml:space="preserve" class=""><g transform="matrix(1.06,0,0,1.06,-1.9200ffff00ffff17,-1.9200ffff00ffff17)"><path d="M31 2h2v3h-2zM45 16h3v2h-3zM16 16h3v2h-3zM19.977 6.396l1.414-1.414 2.12 2.12-1.413 1.415zM21.054 16.899c-.387 3.963 1.31 7.712 4.537 10.03a.987.987 0 0 1 .409.8v2.051c-.609.549-1 1.337-1 2.22 0 1.383.945 2.539 2.22 2.884-.139.346-.22.721-.22 1.116 0 1.654 1.346 3 3 3h1v3.111A6.973 6.973 0 0 0 26 40h-2a1 1 0 0 0-1 1v2c0 3.859 3.141 7 7 7h1v2h2v-2h1c3.859 0 7-3.141 7-7v-2a1 1 0 0 0-1-1h-2c-1.958 0-3.728.81-5 2.111V39h1c1.654 0 3-1.346 3-3 0-.395-.081-.77-.22-1.116A2.995 2.995 0 0 0 39 32c0-.883-.391-1.67-1-2.22v-2.052c0-.317.149-.613.4-.793A11.022 11.022 0 0 0 43 18c0-3.124-1.336-6.112-3.665-8.197-2.326-2.084-5.459-3.075-8.585-2.733-5.117.565-9.195 4.699-9.696 9.829zM31 48h-1c-2.757 0-5-2.243-5-5v-1h1c2.757 0 5 2.243 5 5zm7-6h1v1c0 2.757-2.243 5-5 5h-1v-1c0-2.757 2.243-5 5-5zm-4-5h-4a1 1 0 0 1 0-2h4a1 1 0 0 1 0 2zm2-4h-8a1 1 0 0 1 0-2h8a1 1 0 0 1 0 2zm2.001-21.707A9.013 9.013 0 0 1 41 18a9.02 9.02 0 0 1-3.765 7.311A2.977 2.977 0 0 0 36 27.729V29h-3v-3a.996.996 0 0 0-.293-.707l-3.919-3.919a1.12 1.12 0 0 1 .613-1.899c.354-.062.714.055.973.313l.919.919a.999.999 0 0 0 1.414 0l.919-.919c.259-.259.616-.376.973-.313a1.12 1.12 0 0 1 .613 1.899l-1.919 1.919 1.414 1.414 1.919-1.919a3.118 3.118 0 0 0 .585-3.603 3.092 3.092 0 0 0-2.291-1.686 3.091 3.091 0 0 0-2.708.874l-.212.213-.212-.212a3.092 3.092 0 0 0-2.708-.874 3.087 3.087 0 0 0-2.291 1.686 3.118 3.118 0 0 0 .585 3.603L31 26.414V29h-3v-1.271c0-.959-.465-1.866-1.243-2.425-2.642-1.896-4.029-4.967-3.713-8.211.41-4.194 3.743-7.574 7.926-8.036 2.604-.289 5.099.506 7.031 2.236zM40.48 7.105l2.122-2.121 1.414 1.414-2.121 2.12zM5 57.472V61a1 1 0 0 0 1 1h10a1 1 0 0 0 1-1v-3.528a5.474 5.474 0 0 0-2.987-4.869A3.97 3.97 0 0 0 15 50c0-2.206-1.794-4-4-4s-4 1.794-4 4c0 .999.381 1.901.987 2.603A5.474 5.474 0 0 0 5 57.472zM11 48c1.103 0 2 .897 2 2s-.897 2-2 2-2-.897-2-2 .897-2 2-2zm-4 9.472A3.477 3.477 0 0 1 10.472 54h1.057A3.476 3.476 0 0 1 15 57.472V60H7zM11 44c4.963 0 9-4.037 9-9s-4.037-9-9-9-9 4.037-9 9 4.037 9 9 9zm0-16c3.859 0 7 3.141 7 7s-3.141 7-7 7-7-3.141-7-7 3.141-7 7-7z" fill="#00ffff" opacity="1" data-original="#00ffff" class=""></path><path d="M11 38a1 1 0 0 1-1-1H8c0 1.302.839 2.402 2 2.816V41h2v-1.184A2.996 2.996 0 0 0 14 37c0-1.654-1.346-3-3-3a1 1 0 1 1 1-1h2a2.996 2.996 0 0 0-2-2.816V29h-2v1.184A2.996 2.996 0 0 0 8 33c0 1.654 1.346 3 3 3a1 1 0 0 1 0 2zM47 57.472V61a1 1 0 0 0 1 1h10a1 1 0 0 0 1-1v-3.528a5.474 5.474 0 0 0-2.987-4.869A3.97 3.97 0 0 0 57 50c0-2.206-1.794-4-4-4s-4 1.794-4 4c0 .999.381 1.901.987 2.603A5.474 5.474 0 0 0 47 57.472zM53 48c1.103 0 2 .897 2 2s-.897 2-2 2-2-.897-2-2 .897-2 2-2zm-4 9.472A3.477 3.477 0 0 1 52.472 54h1.057A3.476 3.476 0 0 1 57 57.472V60h-8zM53 26c-4.963 0-9 4.037-9 9s4.037 9 9 9 9-4.037 9-9-4.037-9-9-9zm0 16c-3.859 0-7-3.141-7-7s3.141-7 7-7 7 3.141 7 7-3.141 7-7 7z" fill="#00ffff" opacity="1" data-original="#00ffff" class=""></path><path d="M53 32a1 1 0 0 1 1 1h2a2.996 2.996 0 0 0-2-2.816V29h-2v1.184A2.996 2.996 0 0 0 50 33c0 1.654 1.346 3 3 3a1 1 0 1 1-1 1h-2c0 1.302.839 2.402 2 2.816V41h2v-1.184A2.996 2.996 0 0 0 56 37c0-1.654-1.346-3-3-3a1 1 0 0 1 0-2zM19 58h2v2h-2zM23 58h2v2h-2zM27 58h2v2h-2zM39 58h2v2h-2zM35 58h2v2h-2zM43 58h2v2h-2zM31 58h2v2h-2zM31 54h2v2h-2z" fill="#00ffff" opacity="1" data-original="#00ffff" class=""></path></g></svg>