<svg xmlns="http://www.w3.org/2000/svg" version="1.1" xmlns:xlink="http://www.w3.org/1999/xlink" width="512" height="512" x="0" y="0" viewBox="0 0 512 512" style="enable-background:new 0 0 512 512" xml:space="preserve" class="hovered-paths"><g><path d="M224.12 220.96c-52.07 0-94.44 42.35-94.44 94.41 0 52.07 42.36 94.44 94.44 94.44 52.06 0 94.41-42.36 94.41-94.44 0-52.06-42.35-94.41-94.41-94.41zm0 172.83c-43.24 0-78.42-35.18-78.42-78.42 0-43.23 35.18-78.39 78.42-78.39 43.23 0 78.39 35.17 78.39 78.39 0 43.24-35.16 78.42-78.39 78.42zm-51.87-72.84a8.052 8.052 0 0 1-4.98-3.58l-11.65-18.85c-2.33-3.76-1.16-8.7 2.6-11.02 3.76-2.33 8.7-1.16 11.02 2.6l1.47 2.37a58.032 58.032 0 0 1 14.13-19.9c10.74-9.85 24.69-15.27 39.28-15.27 22.95 0 43.8 13.56 53.13 34.55 1.8 4.04-.03 8.77-4.07 10.57a8.018 8.018 0 0 1-10.57-4.07c-6.76-15.21-21.86-25.04-38.49-25.04-16.25 0-30.36 9.04-37.37 22.59l1.95-1.21c3.76-2.33 8.7-1.17 11.02 2.59 2.33 3.76 1.17 8.7-2.59 11.02l-18.82 11.65a8.02 8.02 0 0 1-4.21 1.2c-.62.01-1.24-.06-1.85-.2zm108.71-7.55 11.65 18.85c2.33 3.76 1.16 8.7-2.6 11.02-1.31.81-2.77 1.2-4.2 1.2-2.68 0-5.31-1.35-6.82-3.8l-1.46-2.36c-8.9 20.88-29.52 35.15-53.41 35.15-22.98 0-43.84-13.56-53.13-34.56-1.79-4.04.04-8.77 4.08-10.56s8.77.04 10.56 4.08c6.73 15.2 21.84 25.03 38.49 25.03 16.19 0 30.31-9.04 37.34-22.58l-1.95 1.21c-3.76 2.33-8.7 1.16-11.02-2.6s-1.16-8.7 2.6-11.02l18.85-11.65c3.76-2.34 8.7-1.17 11.02 2.59zm202.91 7.13c0-42.66-34.72-77.37-77.4-77.37-1.94 0-3.86.1-5.77.24-27.93-73.11-85.38-154.15-170.88-241a7.995 7.995 0 0 0-5.71-2.39c-2.15 0-4.2.86-5.71 2.39C133.23 88.9 75.83 169.73 47.81 242.65c-12.58 32.73-19.19 63.93-19.66 92.73-.44 26.94 4.48 51.92 14.62 74.25 15.64 34.46 43.63 62.22 80.94 80.26C153.54 504.31 188.79 512 224.33 512c4.81 0 9.63-.14 14.44-.42 39.28-2.32 75.89-13.71 105.86-32.92 31.17-19.98 53.75-47.84 65.61-80.82 40.94-1.98 73.63-35.9 73.63-77.31zM237.83 495.59c-81.9 4.85-152.74-31.5-180.47-92.58-24.64-54.26-35.33-175.9 166.76-383.56 79.72 81.94 133.65 158.18 160.54 226.85-14.48 4.26-27.21 12.65-36.82 23.8-2.64-7.23-5.9-14.21-9.77-20.87l9-17.66c3.08-6 1.95-13.28-2.85-18.14l-18.17-18.17c-4.77-4.77-12.04-5.93-18.12-2.86l-17.68 9.02a131.367 131.367 0 0 0-32.34-13.41l-6.13-18.85a15.52 15.52 0 0 0-14.82-10.8h-25.68c-6.75 0-12.71 4.32-14.84 10.78l-6.14 18.89a131.225 131.225 0 0 0-32.31 13.4l-17.74-9.04a15.576 15.576 0 0 0-18.06 2.88l-18.17 18.17a15.602 15.602 0 0 0-2.89 18.11l9.02 17.71a131.6 131.6 0 0 0-13.4 32.31L77.9 287.7c-6.44 2.07-10.77 8.03-10.77 14.82v25.71c0 6.79 4.33 12.75 10.75 14.82l18.89 6.14c2.98 11.25 7.48 22.12 13.4 32.31l-9.04 17.74a15.597 15.597 0 0 0 2.9 18.09l18.17 18.17c4.77 4.77 12.02 5.92 18.09 2.86l17.71-9.02c10.18 5.91 21.04 10.42 32.31 13.4l6.15 18.92a15.603 15.603 0 0 0 14.83 10.74h25.68c6.79 0 12.75-4.34 14.82-10.78l6.13-18.88c11.26-2.97 22.14-7.48 32.34-13.41l17.71 9.04a15.59 15.59 0 0 0 18.09-2.88l18.2-18.2c4.77-4.83 5.9-12.1 2.83-18.08l-9.01-17.69c2.62-4.51 4.95-9.17 7.01-13.94 11.66 15.17 28.8 25.91 48.44 29.24-26.64 67.39-96.94 95.29-155.7 98.77zm85.85-107.03 8.99 17.65-17.73 17.73-17.61-8.99c-4.81-2.46-10.25-2.31-14.94.41-9.06 5.29-18.74 9.3-28.76 11.93-5.24 1.38-9.2 5.12-10.87 10.26l-6.11 18.82h-25.07l-6.12-18.82c-1.67-5.14-5.63-8.88-10.85-10.25-10.02-2.63-19.69-6.64-28.77-11.94-4.7-2.73-10.16-2.87-14.91-.41l-17.63 8.98-17.74-17.74 8.96-17.58c2.49-4.8 2.35-10.25-.39-14.98-5.29-9.06-9.3-18.74-11.94-28.79-1.39-5.21-5.12-9.15-10.25-10.82l-18.79-6.1v-25.08l18.79-6.11c5.12-1.67 8.85-5.61 10.25-10.83 2.69-10.16 6.7-19.84 11.94-28.79 2.73-4.71 2.87-10.16.41-14.91l-8.98-17.63 17.74-17.74 17.58 8.96c4.8 2.49 10.26 2.35 14.97-.39 9.06-5.29 18.74-9.3 28.76-11.93 5.22-1.38 9.17-5.11 10.85-10.26l6.11-18.82h25.07l6.12 18.82c1.67 5.13 5.64 8.87 10.88 10.25 10.02 2.63 19.69 6.64 28.73 11.91 4.67 2.75 10.12 2.9 14.95.43l17.62-8.99 17.73 17.73-9 17.67c-2.45 4.85-2.28 10.3.46 14.92 5.24 8.95 9.24 18.62 11.89 28.73.14.53.31 1.05.5 1.57a76.916 76.916 0 0 0-7.45 33.09c0 10.24 2.02 20.01 5.64 28.96-2.59 8.4-6.14 16.52-10.56 24.11-2.75 4.66-2.93 10.11-.47 14.97zm82.79-6.65c-33.85 0-61.38-27.54-61.38-61.38 0-33.83 27.54-61.36 61.38-61.36s61.38 27.52 61.38 61.36c.01 33.84-27.53 61.38-61.38 61.38zm40.9-89.21a8.006 8.006 0 0 1 0 11.32l-44.39 44.36c-1.56 1.56-3.61 2.34-5.66 2.34s-4.1-.78-5.66-2.34l-26.08-26.05c-3.13-3.13-3.13-8.2-.01-11.33s8.2-3.13 11.32-.01l20.42 20.4 38.73-38.71c3.14-3.11 8.21-3.11 11.33.02z" fill="#00ffff" opacity="1" data-original="#00ffff" class="hovered-path"></path></g></svg>