<svg xmlns="http://www.w3.org/2000/svg" version="1.1" xmlns:xlink="http://www.w3.org/1999/xlink" width="512" height="512" x="0" y="0" viewBox="0 0 512 512" style="enable-background:new 0 0 512 512" xml:space="preserve" class=""><g><path d="M130.539 349.023h-16.986v-96.458c41.51 12.713 83.555-18.609 83.555-61.906 0-13.059-3.8-25.448-10.899-35.988 7.099-10.539 10.899-22.938 10.899-35.988 0-24.148-13.249-45.797-33.918-56.936C161.63 27.439 133.232.011 98.554.011c-34.688 0-63.086 27.428-64.646 61.736-34.169 18.415-43.783 62.056-23.019 92.924C3.8 165.211 0 177.6 0 190.659c0 43.256 41.997 74.634 83.555 61.906v38.009H66.563c-8.284 0-14.999 6.715-14.999 14.999s6.715 14.999 14.999 14.999h16.992v176.407c0 8.28 6.71 14.999 14.999 14.999 8.28 0 14.999-6.72 14.999-14.999V379.022h16.986c8.284 0 14.999-6.715 14.999-14.999s-6.716-15-14.999-15zm-21.776-132.935c-5.783-5.382-14.692-5.338-20.429 0-22.022 20.542-58.336 4.889-58.336-25.429 0-9.589 3.82-18.509 10.769-25.128 6.185-5.894 6.209-15.802 0-21.719-18.866-17.971-11.969-49.948 13.169-58.146 6.88-2.24 11.179-9.079 10.219-16.259-2.841-20.97 13.535-39.398 34.398-39.398 20.918 0 37.229 18.5 34.398 39.398a14.986 14.986 0 0 0 10.209 16.259c14.329 4.67 23.948 17.939 23.948 33.018 0 9.58-3.83 18.509-10.769 25.129-6.21 5.917-6.183 15.826 0 21.719 6.94 6.62 10.769 15.539 10.769 25.128.002 30.183-36.115 46.025-58.345 25.428zM407.773 100.585c4.787-6.761 3.186-16.122-3.575-20.908-37.677-26.676-83.183-26.348-120.401 0-6.761 4.786-8.362 14.148-3.575 20.908 4.786 6.762 14.148 8.361 20.908 3.575 26.374-18.67 58.003-19.632 85.735 0 6.763 4.789 16.125 3.182 20.908-3.575z" fill="#00ffff" opacity="1" data-original="#00ffff" class=""></path><path d="M264.92 55.901c48.436-34.289 109.036-34.773 158.156 0 6.761 4.787 16.123 3.185 20.909-3.575 4.786-6.761 3.185-16.122-3.576-20.909-59.265-41.956-133.852-41.746-192.822 0-6.761 4.787-8.362 14.147-3.575 20.909 4.786 6.761 14.147 8.362 20.908 3.575zM328.899 134.656c-.005 8.241 6.488 14.834 14.782 15.009 8.452.192 15.5-6.652 15.415-15.156-.083-8.327-6.715-14.85-15.099-14.85-8.221 0-15.093 6.501-15.098 14.997zM477.001 377.593h-18.042v-29.972h8.043c13.785 0 25-11.215 25-25v-43.598c0-19.298-15.701-34.999-34.999-34.999h-36.892c-3.804 0-7.247-2.411-8.773-6.142-11.233-27.462-37.663-45.207-67.332-45.207-29.67 0-56.1 17.745-67.333 45.207-1.527 3.731-4.971 6.142-8.774 6.142h-36.891c-19.299 0-34.999 15.701-34.999 34.999v43.599c0 13.784 11.215 24.999 24.999 24.999h8.043v29.972h-18.043c-19.298 0-34.999 15.7-34.999 34.999v20.6c0 19.298 15.701 34.999 34.999 34.999h6.086v28.798c0 8.284 6.716 15 15 15s15-6.716 15-15v-28.798h193.824v28.798c0 8.284 6.716 15 15 15s15-6.716 15-15v-28.798h6.086c19.298 0 34.999-15.701 34.999-34.999v-20.6c-.003-19.298-15.704-34.999-35.002-34.999zm-250.995-59.971v-38.598c0-2.757 2.243-5 5-5h36.891c16.038 0 30.381-9.728 36.54-24.784 6.6-16.138 22.131-26.565 39.567-26.565 17.434 0 32.965 10.428 39.566 26.565 6.158 15.056 20.5 24.785 36.539 24.785h36.892c2.757 0 5 2.243 5 5v38.598H226.006zm202.953 29.999v29.972h-169.91v-29.972zm53.042 85.571c0 2.757-2.243 5-5 5H211.006c-2.757 0-5-2.243-5-5v-20.6c0-2.757 2.243-5 5-5H477c2.757 0 5 2.243 5 5v20.6z" fill="#00ffff" opacity="1" data-original="#00ffff" class=""></path></g></svg>