<svg xmlns="http://www.w3.org/2000/svg" version="1.1" xmlns:xlink="http://www.w3.org/1999/xlink" width="512" height="512" x="0" y="0" viewBox="0 0 512 512" style="enable-background:new 0 0 512 512" xml:space="preserve" class=""><g><path d="M439.401 295.159a71.19 71.19 0 0 0-26.745 5.201V179.52a71.214 71.214 0 0 0 26.745 5.201c39.49 0 71.617-32.127 71.617-71.617s-32.127-71.617-71.617-71.617a71.19 71.19 0 0 0-26.745 5.201v-6.745c0-19.014-16.423-34.483-36.609-34.483H135.953c-20.187 0-36.609 15.469-36.609 34.483v6.745a71.214 71.214 0 0 0-26.745-5.2c-39.49 0-71.617 32.127-71.617 71.617s32.127 71.617 71.617 71.617a71.21 71.21 0 0 0 26.745-5.2v120.839a71.214 71.214 0 0 0-26.745-5.2c-39.49 0-71.617 32.127-71.617 71.617s32.127 71.617 71.617 71.617a71.21 71.21 0 0 0 26.745-5.2v38.89c0 18.999 16.423 34.455 36.609 34.455h240.094c20.187 0 36.609-15.457 36.609-34.455v-38.89a71.214 71.214 0 0 0 26.745 5.2c39.49 0 71.617-32.127 71.617-71.617s-32.126-71.619-71.617-71.619zm0-126.454a55.268 55.268 0 0 1-30.52-9.158c7.409-9.162 18.579-14.653 30.52-14.653 11.932 0 23.096 5.495 30.502 14.664a55.264 55.264 0 0 1-30.502 9.147zm0-111.203c30.659 0 55.602 24.943 55.602 55.602 0 13.629-4.937 26.12-13.105 35.801a55.544 55.544 0 0 0-19.969-15.187c6.766-6.142 11.021-15.002 11.021-24.838 0-18.514-15.05-33.576-33.548-33.576-18.514 0-33.576 15.062-33.576 33.576 0 9.836 4.259 18.697 11.031 24.839a55.56 55.56 0 0 0-19.965 15.17c-8.16-9.679-13.092-22.164-13.092-35.785 0-30.659 24.942-55.602 55.601-55.602zM235.137 34.173h41.727c4.423 0 8.008 3.585 8.008 8.008s-3.585 8.008-8.008 8.008h-41.727c-4.423 0-8.008-3.585-8.008-8.008s3.585-8.008 8.008-8.008zM30.103 148.905c-8.168-9.681-13.105-22.173-13.105-35.801 0-30.659 24.942-55.602 55.602-55.602s55.602 24.943 55.602 55.602c0 13.621-4.932 26.107-13.092 35.785a55.549 55.549 0 0 0-19.965-15.17c6.772-6.142 11.031-15.002 11.031-24.839 0-18.514-15.062-33.576-33.576-33.576-18.498 0-33.548 15.062-33.548 33.576 0 9.836 4.255 18.696 11.021 24.838a55.53 55.53 0 0 0-19.97 15.187zm42.496 19.8a55.266 55.266 0 0 1-30.502-9.147c7.406-9.169 18.57-14.664 30.502-14.664 11.94 0 23.11 5.491 30.52 14.653a55.268 55.268 0 0 1-30.52 9.158zm0 253.672a55.266 55.266 0 0 1-30.502-9.147c7.406-9.169 18.57-14.664 30.502-14.664 11.94 0 23.11 5.491 30.52 14.653a55.268 55.268 0 0 1-30.52 9.158zm42.509-19.816a55.554 55.554 0 0 0-19.964-15.17c6.771-6.142 11.031-15.003 11.031-24.839 0-18.514-15.062-33.576-33.576-33.576-18.498 0-33.548 15.062-33.548 33.576 0 9.836 4.255 18.696 11.021 24.838a55.544 55.544 0 0 0-19.969 15.187c-8.168-9.681-13.105-22.173-13.105-35.801 0-30.659 24.942-55.602 55.602-55.602s55.602 24.943 55.602 55.602c-.002 13.621-4.933 26.107-13.094 35.785zm157.191 63.149h-32.598c-6.583 0-11.939-5.355-11.939-11.938 0-6.599 5.356-11.967 11.939-11.967h32.598c6.583 0 11.939 5.369 11.939 11.967 0 6.582-5.356 11.938-11.939 11.938zm60.23-188.912 4.875 38.185c.544 4.25 3.396 7.749 7.443 9.131 4.078 1.393 8.507.371 11.548-2.67l2.559-2.559 16.23 16.231a71.168 71.168 0 0 0-7.4 31.66 71.18 71.18 0 0 0 8.709 34.2H135.507a71.18 71.18 0 0 0 8.709-34.2 71.165 71.165 0 0 0-7.4-31.66l16.23-16.231 2.558 2.558a11.129 11.129 0 0 0 11.479 2.691c4.04-1.356 6.914-4.831 7.513-9.153l4.88-38.218a11.122 11.122 0 0 0-3.187-9.286c-2.45-2.449-5.837-3.608-9.325-3.179l-38.138 4.901c-4.271.54-7.785 3.39-9.171 7.438a11.104 11.104 0 0 0 2.67 11.527l2.558 2.558-9.523 9.523v-120.68l9.536 9.579-2.57 2.57c-3.041 3.041-4.063 7.458-2.67 11.529 1.387 4.048 4.901 6.897 9.154 7.434l38.196 4.91c.468.058.935.086 1.398.086 2.953 0 5.769-1.155 7.886-3.271 2.449-2.45 3.61-5.834 3.181-9.32l-4.887-38.268c-.587-4.237-3.461-7.712-7.501-9.068-4.058-1.361-8.458-.331-11.479 2.69l-2.559 2.559-16.231-16.23a71.17 71.17 0 0 0 7.401-31.661 71.18 71.18 0 0 0-8.709-34.2h240.986a71.18 71.18 0 0 0-8.709 34.2 71.16 71.16 0 0 0 7.401 31.661l-16.231 16.23-2.558-2.558c-3.042-3.042-7.467-4.065-11.549-2.671-4.048 1.382-6.899 4.881-7.443 9.133l-4.865 38.107a11.065 11.065 0 0 0 3.108 9.347 11.075 11.075 0 0 0 7.928 3.318c.474 0 .952-.03 1.433-.09l38.165-4.902c4.271-.539 7.785-3.388 9.172-7.436a11.107 11.107 0 0 0-2.67-11.529l-2.561-2.561 9.526-9.537v120.646l-9.527-9.538 2.562-2.561a11.107 11.107 0 0 0 2.67-11.527c-1.386-4.048-4.899-6.898-9.154-7.436l-38.209-4.907a11.077 11.077 0 0 0-9.333 3.231c-2.451 2.482-3.584 5.89-3.119 9.274zm106.872 145.579a55.268 55.268 0 0 1-30.52-9.158c7.409-9.162 18.579-14.653 30.52-14.653 11.932 0 23.096 5.495 30.502 14.664a55.255 55.255 0 0 1-30.502 9.147zm42.496-19.8a55.544 55.544 0 0 0-19.969-15.187c6.766-6.142 11.021-15.002 11.021-24.838 0-18.514-15.05-33.576-33.548-33.576-18.514 0-33.576 15.062-33.576 33.576 0 9.836 4.259 18.697 11.031 24.839a55.537 55.537 0 0 0-19.964 15.17c-8.16-9.679-13.092-22.164-13.092-35.785 0-30.659 24.942-55.602 55.602-55.602s55.602 24.943 55.602 55.602c-.001 13.628-4.938 26.12-13.107 35.801zM256 162.554c-42.663 0-77.372 34.708-77.372 77.372 0 42.679 34.709 77.4 77.372 77.4s77.371-34.721 77.371-77.4c0-42.663-34.708-77.372-77.371-77.372zm0 138.756c-33.832 0-61.356-27.537-61.356-61.384 0-33.832 27.524-61.356 61.356-61.356 33.831 0 61.355 27.524 61.355 61.356 0 33.847-27.524 61.384-61.355 61.384zm30.976-102.721a20.306 20.306 0 0 1 14.412 5.951c7.984 7.938 8.024 20.889.091 28.871l-41.464 41.831c-3.966 4.013-9.229 6.026-14.499 6.026-5.135 0-10.276-1.912-14.228-5.748l-20.535-20.025c-3.899-3.787-6.094-8.887-6.166-14.35-.071-5.463 1.988-10.622 5.801-14.525 7.855-8.041 20.8-8.225 28.854-.404l6.033 5.887 27.231-27.491.01-.009c3.842-3.865 8.961-6 14.414-6.013l.046-.001z" fill="#00ffff" opacity="1" data-original="#00ffff" class=""></path></g></svg>