<svg xmlns="http://www.w3.org/2000/svg" version="1.1" xmlns:xlink="http://www.w3.org/1999/xlink" width="512" height="512" x="0" y="0" viewBox="0 0 512 512" style="enable-background:new 0 0 512 512" xml:space="preserve" class=""><g transform="matrix(1.0899999999999985,0,0,1.0899999999999985,-23.366699409484568,-22.986450233459095)"><path d="m366.44 207.92 19.87 10.91c1.84-9.5 2.92-19.19 3.26-29h-58.31v34.5c8.22.26 16.41.94 24.58 2.01l.28-12.44c.12-5.3 5.79-8.48 10.32-5.98zm32.68 17.94 24.07 13.21c8.56-15.02 13.58-31.75 14.63-49.24h-34.24c-.4 12.16-1.88 24.3-4.46 36.03zm36.32 19.93 5.16 2.86c4.71 2.58 4.99 9.5-.08 12.3L422.6 271.3l18.17 31.46c1.9 3.34.77 7.6-2.58 9.52l-27.58 15.93c-3.32 1.9-7.6.77-9.5-2.58l-17.23-29.79c-1.64.85-3.34 1.7-5.05 2.52a136.08 136.08 0 0 1-11.25 4.68l-2.81 1.62a6.903 6.903 0 0 1-4.71.82c-5.16 1.5-10.49 2.69-15.93 3.54-77.75 12.13-147.63-47.88-147.63-126.2 0-70.58 57.2-127.79 127.76-127.79 70.55 0 127.76 57.2 127.76 127.79 0 22.26-5.76 43.89-16.58 62.97zm-80.79 37.56.91-42.94c-8.08-1.13-16.19-1.81-24.29-2.1v57.63c8.75-1.65 16.63-6.33 23.38-12.59zm68.37-28.43-53.21-29.23-1.28 60.58v.14l13.46-7.8c3.34-1.93 7.6-.77 9.52 2.58l18.17 31.46 15.51-8.96-18.2-31.46c-1.93-3.34-.79-7.6 2.55-9.55zM158.49 425.87h43.77v-39.49H75.89c-19.53 0-35.49-15.96-35.49-35.49v-292c0-19.53 15.96-35.49 35.49-35.49h367.48c19.53 0 35.49 15.96 35.49 35.49v292c0 19.53-15.96 35.49-35.49 35.49H317.01v39.49h43.77c16.95 0 30.78 13.83 30.78 30.78 0 16.92-13.83 30.76-30.78 30.76H158.49c-16.95 0-30.78-13.83-30.78-30.76 0-16.94 13.83-30.78 30.78-30.78zm202.28 14.01H158.49c-14.71 0-22.51 17.94-11.85 28.6a16.62 16.62 0 0 0 11.85 4.93h202.28c14.71 0 22.51-17.94 11.85-28.6-3.03-3.03-7.23-4.93-11.85-4.93zm-144.51-53.49v39.49H303v-39.49zm115-316.66v57.6c16.04-.54 32.03-2.75 47.71-6.6-8.79-23.11-25.11-46.69-47.71-51zm0 71.6v34.5h58.31c-.51-14.88-2.72-29-6.26-41.78-17.1 4.28-34.56 6.72-52.05 7.28zm-14 154.6v-57.69c-16.13.43-32.14 2.52-47.85 6.26 8.73 23.26 25.12 47.1 47.85 51.43zm0-71.66v-34.44h-58.31c.51 14.71 2.66 28.69 6.15 41.36 17.1-4.14 34.59-6.46 52.16-6.92zm0-48.44v-34.44c-17.52-.45-35.01-2.75-52.16-6.95-3.49 12.7-5.64 26.65-6.15 41.39zm0-48.44V69.73c-22.73 4.31-39.09 28.15-47.85 51.39 15.73 3.74 31.78 5.84 47.85 6.27zm-106.55 48.44h34.21c.54-15.99 2.89-31.18 6.72-45.07-7.99-2.44-15.9-5.27-23.67-8.53a113.038 113.038 0 0 0-17.26 53.6zm192.86 0h34.24c-1.22-19.87-7.51-38.38-17.63-54.2a246.05 246.05 0 0 1-23.44 8.62c3.92 14.03 6.3 29.39 6.83 45.58zm-158.65 14h-34.21c1.19 19.62 7.37 37.9 17.26 53.6 7.77-3.26 15.68-6.12 23.67-8.56-3.83-13.86-6.18-29.08-6.72-45.04zm-8.56-79.25c6.43 2.61 12.93 4.9 19.53 6.89 5.16-14.12 12.39-27.55 21.83-38.49-16.1 7.22-30.22 18.08-41.36 31.6zm156.1 6.4c6.49-2.01 12.93-4.34 19.25-6.94a114.448 114.448 0 0 0-40.9-31.07c9.32 10.83 16.49 24.1 21.65 38.01zm-136.6 131.19c-6.58 2.01-13.07 4.31-19.5 6.89 11.14 13.52 25.26 24.38 41.36 31.61-9.44-10.95-16.67-24.38-21.86-38.5zM87.88 202.84h76.42c3.77 0 7.23 1.45 9.81 3.77 2.75 2.49 4.42 5.98 4.42 9.84v22.39c0 7.71-6.69 13.61-14.23 13.61H87.88c-3.74 0-7.23-1.45-9.78-3.8l-.03.03c-2.72-2.49-4.42-5.98-4.42-9.84v-22.39c0-7.74 6.72-13.61 14.23-13.61zm76.42 14.01H87.65v21.57h76.88v-21.57h-.23zm-76.42 54.28h76.42c3.77 0 7.23 1.45 9.81 3.77 2.75 2.49 4.42 5.95 4.42 9.84v22.39c0 7.71-6.69 13.61-14.23 13.61H87.88c-3.74 0-7.23-1.45-9.78-3.8l-.03.03c-2.72-2.49-4.42-5.98-4.42-9.84v-22.39c0-7.74 6.72-13.61 14.23-13.61zm76.42 14H87.65v21.57c.23.06 76.68.06 76.88 0v-21.57h-.23zM87.88 66.27h76.42c7.65 0 14.23 5.95 14.23 13.61v22.39c0 7.65-6.58 13.61-14.23 13.61H87.88c-7.65 0-14.23-5.95-14.23-13.61V79.88c0-7.66 6.58-13.61 14.23-13.61zm76.42 14-76.65.03v21.54c.23.06 76.68.06 76.88 0V80.3c-.06-.03-.14-.03-.23-.03zm-76.42 54.29h76.42c7.65 0 14.23 5.95 14.23 13.61v22.39c0 7.65-6.58 13.61-14.23 13.61H87.88c-7.65 0-14.23-5.95-14.23-13.61v-22.39c0-7.66 6.58-13.61 14.23-13.61zm76.42 14-76.65.03v21.54c.23.06 76.68.06 76.88 0v-21.54c-.06-.03-.14-.03-.23-.03zM464.86 350.9v-4.82H54.4v4.82c0 11.82 9.67 21.49 21.49 21.49h367.48c11.82-.01 21.49-9.67 21.49-21.49zM443.37 37.41H75.89c-11.82 0-21.49 9.69-21.49 21.49v273.17h410.46V58.9c0-11.79-9.67-21.49-21.49-21.49z" fill="#00ffff" opacity="1" data-original="#00ffff" class=""></path></g></svg>