<svg xmlns="http://www.w3.org/2000/svg" version="1.1" xmlns:xlink="http://www.w3.org/1999/xlink" width="512" height="512" x="0" y="0" viewBox="0 0 512 512" style="enable-background:new 0 0 512 512" xml:space="preserve" class="hovered-paths"><g><path d="M418.65 414.9c-38.65 39.57-89.41 63.33-144.07 67.73l15.71 15.71a8.01 8.01 0 0 1 0 11.33c-1.56 1.56-3.61 2.35-5.66 2.35s-4.1-.78-5.66-2.35l-28.63-28.63a8.01 8.01 0 0 1 0-11.33l28.63-28.63c3.13-3.13 8.2-3.13 11.33 0s3.13 8.2 0 11.33l-13.99 13.99C382.95 456.07 467.37 364.68 467.37 256c0-98.46-66.81-183.02-162.47-205.66-4.3-1.02-6.97-5.33-5.95-9.64 1.02-4.3 5.33-6.97 9.64-5.95 48.96 11.58 93.35 39.71 124.98 79.21 32.12 40.1 49.82 90.55 49.82 142.04-.01 59.74-23 116.17-64.74 158.9zm-211.52 46.78C111.46 439.03 44.63 354.45 44.63 256c0-108.65 84.41-200.02 191.03-210.36L221.7 59.6a8.01 8.01 0 0 0 0 11.33c1.56 1.56 3.61 2.35 5.66 2.35s4.1-.78 5.66-2.35l28.63-28.63a8.01 8.01 0 0 0 0-11.33L233.03 2.33c-3.13-3.13-8.2-3.13-11.33 0s-3.13 8.2 0 11.33l15.73 15.73c-54.68 4.4-105.45 28.16-144.11 67.74-41.72 42.72-64.7 99.14-64.7 158.87 0 51.49 17.69 101.94 49.82 142.04 31.64 39.49 76.03 67.63 125 79.23.62.15 1.24.22 1.85.22a8.02 8.02 0 0 0 7.79-6.16c1.02-4.31-1.64-8.63-5.95-9.65zM183.14 94.72l84.27.45c7.73.02 14.9 2.8 19.67 7.62 3.55 3.59 5.49 8.13 5.45 12.79l-.14 13.63 46.08.35c3.92.03 7.59 1.59 10.35 4.39s4.26 6.49 4.23 10.4l-.14 21.34a14.59 14.59 0 0 1-4.4 10.37 14.616 14.616 0 0 1-9.95 4.2l-6.73 61.9h3.06c5.2 0 9.8 3.33 11.45 8.28l2.68 8.24c4.98 1.46 9.82 3.47 14.41 5.97l7.68-3.91c4.62-2.39 10.25-1.51 13.97 2.21l9.71 9.68.07.07c3.66 3.75 4.52 9.37 2.12 13.99l-3.89 7.61c2.5 4.58 4.5 9.42 5.97 14.43l8.19 2.66c4.96 1.57 8.34 6.19 8.34 11.47v13.72c0 5.2-3.33 9.8-8.28 11.45l-8.24 2.68a73.03 73.03 0 0 1-5.97 14.4l3.91 7.69c2.39 4.61 1.51 10.25-2.21 13.97l-9.72 9.72c-3.72 3.72-9.36 4.6-14.02 2.19l-7.63-3.88a74.344 74.344 0 0 1-14.41 5.97l-2.66 8.19c-1.67 5.01-6.27 8.34-11.47 8.34h-13.72c-5.28 0-9.9-3.37-11.49-8.4l-2.64-8.13a73.687 73.687 0 0 1-14.43-5.97l-7.66 3.91c-4.58 2.37-10.2 1.52-13.94-2.14l-.07-.07-4.38-4.39H155.17c-12.11 0-22.2-8.82-23.47-20.52l-20.97-193.03c-7.97-.21-14.37-6.78-14.31-14.8l.14-21.34c.06-8.07 6.65-14.59 14.7-14.59h.11l46.16.35.14-13.38c.09-11.28 11.17-20.08 25.26-20.08h.21zm-27.97 281.37h102.75c.21-1.14.59-2.26 1.14-3.33l3.89-7.64c-2.49-4.56-4.5-9.39-5.97-14.4l-8.19-2.66c-5.01-1.67-8.34-6.27-8.34-11.47v-13.72c0-5.28 3.37-9.9 8.4-11.49l8.13-2.64c1.46-4.98 3.47-9.83 5.97-14.43l-3.91-7.66c-2.37-4.58-1.52-10.2 2.15-13.95l1.6-1.6v-61.57c0-4.42 3.58-8.01 8.01-8.01s8.01 3.58 8.01 8.01v49.91c2.1-.12 4.23.3 6.19 1.32l7.62 3.89c4.58-2.5 9.42-4.5 14.43-5.97l2.66-8.19a11.87 11.87 0 0 1 5.87-6.97l6.89-63.36-195.6-1.47 20.77 191.16c.31 3.01 2.81 6.24 7.53 6.24zm176.84-117.92h-7.97l-2.43 7.48c-1.23 3.87-4.35 6.84-8.33 7.92a57.77 57.77 0 0 0-14.5 5.99c-3.55 2.07-7.72 2.21-11.44.39l-.12-.06-6.99-3.57-3.49 3.49c-.19.21-.39.41-.6.6l-1.53 1.53 3.57 6.99.06.12c1.82 3.72 1.68 7.88-.39 11.43a58.042 58.042 0 0 0-5.98 14.44c-1.09 4.04-4.07 7.16-7.98 8.41l-7.44 2.42v7.97l7.48 2.43c3.87 1.23 6.84 4.35 7.92 8.33a57.078 57.078 0 0 0 6.03 14.55c2.04 3.58 2.15 7.75.31 11.42l-3.6 7.06.84.85.18.18 4.6 4.61 6.99-3.57a12.03 12.03 0 0 1 11.55.32c4.53 2.64 9.39 4.65 14.45 5.98 4.04 1.09 7.16 4.07 8.4 7.98l2.42 7.44h7.97l2.43-7.48c1.23-3.87 4.35-6.84 8.33-7.92.02-.01.04-.01.06-.02 5.06-1.33 9.91-3.34 14.44-5.97 3.61-2.1 7.94-2.21 11.6-.29l6.93 3.53 5.63-5.63-3.57-7.01c-1.85-3.55-1.76-7.86.29-11.47.02-.03.04-.06.06-.1 2.63-4.48 4.64-9.32 5.96-14.39 1.09-4.04 4.07-7.16 7.98-8.4l7.44-2.42v-7.97l-7.48-2.43c-3.87-1.23-6.84-4.35-7.92-8.33a57.617 57.617 0 0 0-5.99-14.5c-2.08-3.58-2.2-7.9-.33-11.56l3.57-6.99-5.63-5.62-7.01 3.57c-3.7 1.85-7.99 1.72-11.51-.33a58.042 58.042 0 0 0-14.44-5.98c-4.04-1.09-7.16-4.07-8.4-7.98zm5.01-112.6-171.33-1.3c-.07 0-.15.01-.22.01h-.09c-.08 0-.16-.01-.24-.01l-52.56-.4-.12 18.71 224.45 1.68zm-69.68-34.38-84.29-.45h-.1c-5.74 0-9.24 2.92-9.25 4.22l-.14 13.35 102.81.78.14-13.66c0-.33-.31-.86-.82-1.38-1.36-1.37-4.27-2.85-8.35-2.86zm60.69 171.9c25.7 0 46.62 20.92 46.62 46.64 0 25.7-20.91 46.62-46.62 46.62-25.72 0-46.64-20.91-46.64-46.62-.01-25.72 20.92-46.64 46.64-46.64zm-30.63 46.64c0 16.87 13.74 30.6 30.63 30.6 16.87 0 30.6-13.73 30.6-30.6 0-16.89-13.73-30.63-30.6-30.63-16.89 0-30.63 13.74-30.63 30.63zm-118.73-128.2c-4.42 0-8.01 3.58-8.01 8.01v136.12c0 4.42 3.58 8.01 8.01 8.01s8.01-3.58 8.01-8.01V209.54c0-4.42-3.59-8.01-8.01-8.01zm46.06 0c-4.42 0-8.01 3.58-8.01 8.01v136.12c0 4.42 3.58 8.01 8.01 8.01s8.01-3.58 8.01-8.01V209.54c0-4.42-3.58-8.01-8.01-8.01z" fill="#00ffff" opacity="1" data-original="#00ffff" class="hovered-path"></path></g></svg>