<svg xmlns="http://www.w3.org/2000/svg" version="1.1" xmlns:xlink="http://www.w3.org/1999/xlink" width="512" height="512" x="0" y="0" viewBox="0 0 512 512" style="enable-background:new 0 0 512 512" xml:space="preserve" class=""><g><path d="M30.486 391.796h88.135v63.463H30.486z" style="" fill="#c5cfd1" data-original="#62dbfb" class="" opacity="0"></path><path d="M304.626 394.455h90.827v31.998h-90.827z" style="" transform="rotate(-18.276 349.99 410.408)" fill="#c5cfd1" data-original="#62dbfb" class="" opacity="0"></path><path d="m103.729 366.179 43.132 36.463 63.423-75.022c10.069-11.911 8.576-29.729-3.334-39.798s-29.729-8.576-39.798 3.334l-63.423 75.023z" style="" fill="#c5cfd1" data-original="#62dbfb" class="" opacity="0"></path><path d="M206.95 287.822a28.112 28.112 0 0 0-16.222-6.599c9.479 10.322 10.033 26.322.748 37.305L131.41 389.58l15.451 13.062 63.423-75.022c10.069-11.911 8.577-29.729-3.334-39.798z" style="" fill="#01c0fa" data-original="#01c0fa" class="" opacity="0"></path><path d="m405.525 416.686 43.025-54.616c8.743-11.098 6.834-27.182-4.265-35.925-11.098-8.743-27.183-6.834-35.925 4.264l-36.773 46.679a6.66 6.66 0 0 0-.205 7.968l22.164 31.322c2.888 4.08 8.887 4.234 11.979.308z" style="" fill="#eaf6ff" data-original="#eaf6ff" class="" opacity="0"></path><path d="M444.286 326.145a25.463 25.463 0 0 0-15.853-5.48c10.141 8.911 11.648 24.302 3.194 35.033l-42.681 54.179 4.601 6.501c2.887 4.08 8.886 4.234 11.979.308l43.025-54.616c8.742-11.097 6.833-27.182-4.265-35.925z" style="" fill="#01c0fa" data-original="#d5e3f4" class="" opacity="0"></path><path d="M251.656 388.458v62.27h65.778a7.225 7.225 0 0 0 7.225-7.225v-47.819a7.225 7.225 0 0 0-7.225-7.225h-65.778z" style="" fill="#c5cfd1" data-original="#528fd8" class="" opacity="0"></path><path d="M317.434 388.458h-20a7.226 7.226 0 0 1 7.226 7.225v47.819a7.226 7.226 0 0 1-7.226 7.226h20a7.225 7.225 0 0 0 7.225-7.225v-47.819a7.224 7.224 0 0 0-7.225-7.226z" style="" fill="#c5cfd1" data-original="#0473ce" class="" opacity="0"></path><path d="m96.103 485.034 167.366-13.997c10.697-.895 18.923-9.838 18.923-20.572v-65.051c0-5.701-4.621-10.322-10.322-10.322h-93.508a18.468 18.468 0 0 1-11.516-4.031l-31.49-25.126a31.183 31.183 0 0 0-19.45-6.809c-17.223 0-31.185 13.962-31.185 31.184v104.439c0 6.039 5.163 10.788 11.182 10.285z" style="" fill="#eaf6ff" data-original="#eaf6ff" class="" opacity="0"></path><path d="M272.07 375.092h-20c5.701 0 10.322 4.621 10.322 10.322v70.051c0 6.616-3.132 12.544-8.034 16.334l9.111-.762c10.697-.895 18.923-9.838 18.923-20.572v-65.051c0-5.701-4.621-10.322-10.322-10.322z" style="" fill="#01c0fa" data-original="#d5e3f4" class="" opacity="0"></path><path d="M53.224 379.359v88.336c0 8.135-6.594 14.729-14.729 14.729H12.661a5.161 5.161 0 0 1-5.161-5.161V369.791a5.161 5.161 0 0 1 5.161-5.161h25.834c8.134 0 14.729 6.595 14.729 14.729z" style="" fill="#eaf6ff" data-original="#eaf6ff" class="" opacity="0"></path><path d="M38.495 364.63h-20c8.135 0 14.729 6.594 14.729 14.729v88.335c0 8.134-6.594 14.729-14.729 14.729h20c8.135 0 14.729-6.595 14.729-14.729v-88.336c0-8.134-6.595-14.728-14.729-14.728z" style="" fill="#01c0fa" data-original="#d5e3f4" class="" opacity="0"></path><path d="M263.898 182.555v87.995a3.261 3.261 0 0 0 3.262 3.262h87.995a3.262 3.262 0 0 0 3.262-3.262v-87.995a3.262 3.262 0 0 0-3.262-3.262H267.16a3.262 3.262 0 0 0-3.262 3.262z" style="" fill="#c5cfd1" data-original="#62dbfb" class="" opacity="0"></path><path d="M355.155 179.293h-20a3.261 3.261 0 0 1 3.262 3.262v87.995a3.262 3.262 0 0 1-3.262 3.262h20a3.261 3.261 0 0 0 3.262-3.262v-87.995a3.261 3.261 0 0 0-3.262-3.262z" style="" fill="#01c0fa" data-original="#01c0fa" class="" opacity="0"></path><path d="M293.158 211.552v30a3 3 0 0 0 3 3h30a3 3 0 0 0 3-3v-30a3 3 0 0 0-3-3h-30a3 3 0 0 0-3 3z" style="" fill="#c5cfd1" data-original="#528fd8" class="" opacity="0"></path><path d="M199.341 243.767a114.876 114.876 0 0 1-2.305-28.811c2.699-59.17 50.923-106.838 110.121-108.859C372.075 103.88 425.4 155.849 425.4 220.271c0 8.066-.841 15.935-2.433 23.528-.679 3.237 1.823 6.268 5.13 6.268h70.116a6.286 6.286 0 0 0 6.286-6.286v-47.02a6.286 6.286 0 0 0-6.286-6.286h-26.735a3.147 3.147 0 0 1-3.077-2.533 159.597 159.597 0 0 0-23.204-55.993 3.146 3.146 0 0 1 .386-3.966l18.912-18.912a6.286 6.286 0 0 0 0-8.89l-33.248-33.248a6.286 6.286 0 0 0-8.89 0l-18.912 18.912a3.146 3.146 0 0 1-3.966.386 159.597 159.597 0 0 0-55.993-23.204 3.147 3.147 0 0 1-2.533-3.077V33.215a6.286 6.286 0 0 0-6.286-6.286h-47.02a6.286 6.286 0 0 0-6.286 6.286V59.95c0 1.5-1.063 2.776-2.533 3.077a159.597 159.597 0 0 0-55.993 23.204 3.146 3.146 0 0 1-3.966-.386l-18.912-18.912a6.286 6.286 0 0 0-8.89 0l-33.248 33.248a6.286 6.286 0 0 0 0 8.89l18.912 18.912a3.146 3.146 0 0 1 .386 3.966 159.579 159.579 0 0 0-23.204 55.993 3.147 3.147 0 0 1-3.077 2.533h-26.735a6.286 6.286 0 0 0-6.286 6.286v47.02a6.286 6.286 0 0 0 6.286 6.286h70.119c3.321 0 5.802-3.049 5.121-6.3z" style="" fill="#00ffff" data-original="#7ca1b1" class="" opacity="1"></path><path d="M498.214 190.476h-26.735a3.147 3.147 0 0 1-3.077-2.533 159.58 159.58 0 0 0-23.205-55.993 3.146 3.146 0 0 1 .386-3.966l18.912-18.912a6.286 6.286 0 0 0 0-8.89l-33.248-33.248a6.286 6.286 0 0 0-8.89 0l-18.912 18.912a3.146 3.146 0 0 1-3.966.386 159.576 159.576 0 0 0-55.994-23.204 3.146 3.146 0 0 1-2.532-3.076V33.215a6.286 6.286 0 0 0-6.286-6.286h-19.999a6.287 6.287 0 0 1 6.285 6.286v37.096c0 5.257 3.852 9.772 9.062 10.469 68.818 9.215 121.894 68.151 121.894 139.491 0 10.225-1.1 20.19-3.171 29.796h49.475a6.286 6.286 0 0 0 6.286-6.286v-47.02a6.284 6.284 0 0 0-6.285-6.285z" style="" fill="#00ffff" data-original="#678d98" class="" opacity="1"></path><path d="M84.92 391.8h-31.7M84.92 455.26h-31.7M391.58 413.59l-66.92 22.1M372.24 386.27l-47.58 15.71M125.4 340.55l41.75-49.39c10.07-11.91 27.89-13.41 39.8-3.34 11.91 10.07 13.4 27.89 3.33 39.8l-38.9 46.01M446.376 364.832l2.175-2.761c8.743-11.098 6.834-27.182-4.265-35.925-11.098-8.743-27.183-6.834-35.925 4.264l-36.773 46.679a6.66 6.66 0 0 0-.205 7.968l22.164 31.322c2.887 4.08 8.886 4.234 11.979.308l19.195-24.365M282.39 388.46h35.04c3.99 0 7.23 3.23 7.23 7.22v47.82c0 3.99-3.24 7.23-7.23 7.23h-35.05" style="stroke-width:15;stroke-linecap:round;stroke-linejoin:round;stroke-miterlimit:10;" fill="none" stroke="#00ffff" stroke-width="15" stroke-linecap="round" stroke-linejoin="round" stroke-miterlimit="10" data-original="#00ffff" class=""></path><path d="m96.103 485.034 167.366-13.997c10.697-.895 18.923-9.838 18.923-20.572v-65.051c0-5.701-4.621-10.322-10.322-10.322h-93.508a18.468 18.468 0 0 1-11.516-4.031l-31.49-25.126a31.183 31.183 0 0 0-19.45-6.809c-17.223 0-31.185 13.962-31.185 31.184v104.439c0 6.039 5.163 10.788 11.182 10.285zM53.224 379.359v88.336c0 8.135-6.594 14.729-14.729 14.729H12.661a5.161 5.161 0 0 1-5.161-5.161V369.791a5.161 5.161 0 0 1 5.161-5.161h25.834c8.134 0 14.729 6.595 14.729 14.729zM381.51 196.42h-23.09M263.9 196.42h-23.1M381.51 226.55h-23.09M263.9 226.55h-23.1M381.51 256.69h-23.09M263.9 256.69h-23.1M341.29 296.91v-23.1M341.29 179.29V156.2M311.16 296.91v-23.1M311.16 179.29V156.2M281.02 296.91v-23.1M281.02 179.29V156.2M263.898 182.555v87.995a3.261 3.261 0 0 0 3.262 3.262h87.995a3.262 3.262 0 0 0 3.262-3.262v-87.995a3.262 3.262 0 0 0-3.262-3.262H267.16a3.262 3.262 0 0 0-3.262 3.262z" style="stroke-width:15;stroke-linecap:round;stroke-linejoin:round;stroke-miterlimit:10;" fill="none" stroke="#00ffff" stroke-width="15" stroke-linecap="round" stroke-linejoin="round" stroke-miterlimit="10" data-original="#00ffff" class=""></path><path d="M293.158 211.552v30a3 3 0 0 0 3 3h30a3 3 0 0 0 3-3v-30a3 3 0 0 0-3-3h-30a3 3 0 0 0-3 3z" style="stroke-width:15;stroke-linecap:round;stroke-linejoin:round;stroke-miterlimit:10;" fill="none" stroke="#00ffff" stroke-width="15" stroke-linecap="round" stroke-linejoin="round" stroke-miterlimit="10" data-original="#00ffff" class=""></path><path d="M249.142 124.409c16.846-10.951 36.721-17.585 58.016-18.312 64.918-2.217 118.243 49.752 118.243 114.174 0 8.066-.841 15.935-2.433 23.528-.679 3.237 1.823 6.268 5.13 6.268h70.116a6.286 6.286 0 0 0 6.286-6.286v-47.02a6.286 6.286 0 0 0-6.286-6.286h-26.735a3.147 3.147 0 0 1-3.077-2.533 159.597 159.597 0 0 0-23.204-55.993 3.146 3.146 0 0 1 .386-3.966l18.912-18.912a6.286 6.286 0 0 0 0-8.89l-33.248-33.248a6.286 6.286 0 0 0-8.89 0l-18.912 18.912a3.146 3.146 0 0 1-3.966.386 159.597 159.597 0 0 0-55.993-23.204 3.147 3.147 0 0 1-2.533-3.077V33.215a6.286 6.286 0 0 0-6.286-6.286h-47.02a6.286 6.286 0 0 0-6.286 6.286V59.95c0 1.5-1.063 2.776-2.533 3.077a159.597 159.597 0 0 0-55.993 23.204 3.146 3.146 0 0 1-3.966-.386l-18.912-18.912a6.286 6.286 0 0 0-8.89 0l-33.248 33.248a6.286 6.286 0 0 0 0 8.89l18.912 18.912a3.146 3.146 0 0 1 .386 3.966 159.579 159.579 0 0 0-23.204 55.993 3.147 3.147 0 0 1-3.077 2.533h-26.735a6.286 6.286 0 0 0-6.286 6.286v47.02a6.286 6.286 0 0 0 6.286 6.286h70.119c3.321 0 5.802-3.05 5.122-6.3a114.876 114.876 0 0 1-2.305-28.811c1.162-25.477 10.764-48.822 26.048-67.308" style="stroke-width:15;stroke-linecap:round;stroke-linejoin:round;stroke-miterlimit:10;" fill="none" stroke="#00ffff" stroke-width="15" stroke-linecap="round" stroke-linejoin="round" stroke-miterlimit="10" data-original="#00ffff" class=""></path></g></svg>