<svg xmlns="http://www.w3.org/2000/svg" version="1.1" xmlns:xlink="http://www.w3.org/1999/xlink" width="512" height="512" x="0" y="0" viewBox="0 0 512 512" style="enable-background:new 0 0 512 512" xml:space="preserve" class=""><g transform="matrix(1.06,0,0,1.06,-15.360598869323724,-15.359696960449241)"><path d="M252.62 121.49c-20.51 13.95-42.95 24.41-66.71 31.08-9.42 2.65-18.69 4.57-30.06 6.24a5.997 5.997 0 0 0-5.13 5.94v144.1c0 .7.12 1.4.37 2.06 12.91 35.3 46.51 63.12 102.72 85.04.7.27 1.44.41 2.18.41s1.48-.14 2.18-.41c56.21-21.92 89.81-49.74 102.72-85.04.24-.66.37-1.36.37-2.06v-144.1c0-2.98-2.18-5.5-5.13-5.94-11.37-1.67-20.64-3.59-30.06-6.24-23.76-6.67-46.2-17.13-66.71-31.08a5.968 5.968 0 0 0-6.74 0zm70.22 42.63c8.34 2.34 16.85 4.2 26.43 5.77v137.88c-11.77 30.98-42.31 55.92-93.27 76.15-50.96-20.23-81.49-45.17-93.27-76.15V169.89c9.58-1.56 18.09-3.42 26.43-5.76 23.71-6.66 46.17-16.9 66.84-30.46 20.66 13.55 43.12 23.79 66.84 30.45zm148.04 113.63c-8.83 0-16.65 4.41-21.38 11.13l-33.27-14.68c-.76-.34-1.59-.51-2.42-.51h-25.54V233.1h29.58c2.72 11.52 13.08 20.12 25.42 20.12 14.4 0 26.12-11.72 26.12-26.12s-11.72-26.12-26.12-26.12c-12.34 0-22.7 8.6-25.42 20.12h-29.58v-43.22h25.68c1.59 0 3.11-.63 4.24-1.75l18.98-18.93c3.86 2.25 8.34 3.55 13.13 3.55 14.4 0 26.12-11.72 26.12-26.12s-11.72-26.12-26.12-26.12-26.12 11.72-26.12 26.12c0 5.28 1.58 10.2 4.28 14.31l-16.99 16.95h-23.2v-24.98c0-3.05-2.28-5.61-5.31-5.96-1.55-.18-3.29-.36-5.23-.55-22.72-2.32-70.01-7.14-117.93-46.26a6.01 6.01 0 0 0-7.59 0c-47.92 39.12-95.21 43.94-117.93 46.26-1.93.2-3.68.38-5.23.55a5.994 5.994 0 0 0-5.31 5.96v24.98h-23.2l-16.99-16.95a25.99 25.99 0 0 0 4.28-14.31c0-14.4-11.72-26.12-26.12-26.12s-26.12 11.72-26.12 26.12 11.72 26.12 26.12 26.12c4.78 0 9.27-1.3 13.13-3.55l18.98 18.93a6.002 6.002 0 0 0 4.24 1.75h25.68v43.22H94.15c-2.72-11.52-13.08-20.12-25.42-20.12-14.4 0-26.12 11.72-26.12 26.12s11.72 26.12 26.12 26.12c12.34 0 22.7-8.6 25.42-20.12h29.58v40.59H98.19c-.83 0-1.66.17-2.42.51L62.5 288.89c-4.73-6.73-12.55-11.13-21.38-11.13-14.4 0-26.12 11.72-26.12 26.12S26.72 330 41.12 330s26.12-11.72 26.12-26.12c0-1.31-.1-2.59-.28-3.84l32.5-14.34h24.28v27.6c0 .61.09 1.23.28 1.81 15.02 47.43 57.52 83.32 129.93 109.73a6.08 6.08 0 0 0 4.12 0c72.41-26.41 114.91-62.31 129.93-109.73.19-.59.28-1.2.28-1.81v-27.6h24.28l32.5 14.34a25.62 25.62 0 0 0-.28 3.84c0 14.4 11.72 26.12 26.12 26.12s26.12-11.72 26.12-26.12c-.02-14.41-11.74-26.13-26.14-26.13zm-27.61-64.76c7.79 0 14.12 6.33 14.12 14.12s-6.33 14.12-14.12 14.12-14.12-6.34-14.12-14.12 6.33-14.12 14.12-14.12zm7.02-92.48c7.79 0 14.12 6.34 14.12 14.12s-6.33 14.12-14.12 14.12-14.12-6.33-14.12-14.12 6.34-14.12 14.12-14.12zM47.58 134.63c0-7.79 6.34-14.12 14.12-14.12s14.12 6.34 14.12 14.12-6.33 14.12-14.12 14.12-14.12-6.33-14.12-14.12zm21.15 106.6c-7.79 0-14.12-6.34-14.12-14.12s6.33-14.12 14.12-14.12 14.12 6.33 14.12 14.12-6.33 14.12-14.12 14.12zM41.12 318C33.34 318 27 311.67 27 303.88s6.34-14.12 14.12-14.12 14.12 6.34 14.12 14.12S48.91 318 41.12 318zm335.15-5.64c-13.93 42.78-53.29 75.66-120.27 100.46-66.97-24.8-106.33-57.68-120.27-100.46V146.31c23.38-2.39 71.06-7.37 120.27-45.85 49.21 38.48 96.89 43.46 120.27 45.85zm94.61 5.64c-7.79 0-14.12-6.33-14.12-14.12s6.34-14.12 14.12-14.12S485 296.09 485 303.88 478.67 318 470.88 318zm-245.33-86.62v19.1h-9.26c-3.31 0-6 2.69-6 6v52.95c0 3.31 2.69 6 6 6h79.42c3.31 0 6-2.69 6-6v-52.95c0-3.31-2.69-6-6-6h-58.16v-19.1c0-9.93 8.08-18 18-18h.9c9.92 0 18 8.07 18 18 0 3.31 2.69 6 6 6s6-2.69 6-6c0-16.54-13.46-30-30-30h-.9c-16.54 0-30 13.46-30 30zm64.16 72.05h-67.42v-40.95h67.42zM250 288.73v-11.55c0-3.31 2.69-6 6-6s6 2.69 6 6v11.55c0 3.31-2.69 6-6 6s-6-2.69-6-6z" fill="#00ffff" opacity="1" data-original="#00ffff" class=""></path></g></svg>