<svg xmlns="http://www.w3.org/2000/svg" version="1.1" xmlns:xlink="http://www.w3.org/1999/xlink" width="512" height="512" x="0" y="0" viewBox="0 0 471.859 471.859" style="enable-background:new 0 0 512 512" xml:space="preserve"><g><path fill-rule="evenodd" d="M286.528 297.549H185.331a7.359 7.359 0 0 1-7.373-7.373V35.174a7.359 7.359 0 0 1 7.373-7.373h101.197a7.359 7.359 0 0 1 7.373 7.373v255.002a7.35 7.35 0 0 1-7.373 7.373zm-93.824-14.746h86.451V42.547h-86.451z" clip-rule="evenodd" fill="#00ffff" opacity="1" data-original="#00ffff"></path><path fill-rule="evenodd" d="M247.514 444.058H224.32a7.359 7.359 0 0 1-7.373-7.373V290.483c0-4.083 3.29-7.373 7.373-7.373s7.373 3.29 7.373 7.373v138.829h8.448V290.483c0-4.083 3.29-7.373 7.373-7.373s7.373 3.29 7.373 7.373v146.202a7.36 7.36 0 0 1-7.373 7.373zM235.93 198.758c-18.893 0-34.253-15.424-34.253-34.381s15.36-34.381 34.253-34.381 34.253 15.424 34.253 34.381-15.361 34.381-34.253 34.381zm0-53.977c-10.752 0-19.507 8.781-19.507 19.635s8.755 19.597 19.507 19.597 19.507-8.781 19.507-19.635c0-10.855-8.755-19.597-19.507-19.597zM235.93 123.187c-18.893 0-34.253-15.424-34.253-34.381s15.36-34.381 34.253-34.381 34.253 15.437 34.253 34.381-15.361 34.381-34.253 34.381zm0-53.977c-10.752 0-19.507 8.781-19.507 19.635s8.755 19.597 19.507 19.597 19.507-8.781 19.507-19.635-8.755-19.597-19.507-19.597zM235.93 274.355c-18.893 0-34.253-15.424-34.253-34.381s15.36-34.381 34.253-34.381 34.253 15.424 34.253 34.381-15.361 34.381-34.253 34.381zm0-54.003c-10.752 0-19.507 8.781-19.507 19.635s8.755 19.635 19.507 19.635 19.507-8.781 19.507-19.635c0-10.841-8.755-19.635-19.507-19.635zM185.024 118.182c-16.346 0-31.706-6.784-43.226-19.136-11.392-12.198-17.664-28.39-17.664-45.594 0-4.083 3.29-7.373 7.373-7.373s7.373 3.29 7.373 7.373c0 27.558 20.71 49.984 46.144 49.984a7.359 7.359 0 0 1 7.373 7.373 7.374 7.374 0 0 1-7.373 7.373z" clip-rule="evenodd" fill="#00ffff" opacity="1" data-original="#00ffff"></path><path fill-rule="evenodd" d="M185.024 60.826h-53.517c-4.083 0-7.373-3.29-7.373-7.373s3.29-7.373 7.373-7.373h53.517c4.083 0 7.373 3.29 7.373 7.373s-3.315 7.373-7.373 7.373zM185.024 197.376c-16.346 0-31.706-6.784-43.226-19.136-11.392-12.198-17.664-28.39-17.664-45.594 0-4.083 3.29-7.373 7.373-7.373s7.373 3.29 7.373 7.373c0 27.558 20.71 49.984 46.144 49.984 4.083 0 7.373 3.29 7.373 7.373s-3.315 7.373-7.373 7.373z" clip-rule="evenodd" fill="#00ffff" opacity="1" data-original="#00ffff"></path><path fill-rule="evenodd" d="M185.024 140.019h-53.517c-4.083 0-7.373-3.29-7.373-7.373s3.29-7.373 7.373-7.373h53.517a7.359 7.359 0 0 1 7.373 7.373 7.374 7.374 0 0 1-7.373 7.373zM185.024 276.57c-16.346 0-31.706-6.784-43.226-19.136-11.392-12.198-17.664-28.39-17.664-45.594 0-4.083 3.29-7.373 7.373-7.373s7.373 3.29 7.373 7.373c0 27.558 20.71 49.984 46.144 49.984 4.083 0 7.373 3.29 7.373 7.373s-3.315 7.373-7.373 7.373z" clip-rule="evenodd" fill="#00ffff" opacity="1" data-original="#00ffff"></path><path fill-rule="evenodd" d="M185.024 219.213h-53.517c-4.083 0-7.373-3.29-7.373-7.373s3.29-7.373 7.373-7.373h53.517a7.359 7.359 0 0 1 7.373 7.373 7.367 7.367 0 0 1-7.373 7.373zM286.835 118.182c-4.083 0-7.373-3.29-7.373-7.373s3.29-7.373 7.373-7.373c25.434 0 46.144-22.426 46.144-49.984 0-4.083 3.29-7.373 7.373-7.373s7.373 3.29 7.373 7.373c0 17.203-6.272 33.395-17.664 45.594-11.52 12.314-26.855 19.136-43.226 19.136z" clip-rule="evenodd" fill="#00ffff" opacity="1" data-original="#00ffff"></path><path fill-rule="evenodd" d="M340.352 60.826h-53.517c-4.083 0-7.373-3.29-7.373-7.373s3.29-7.373 7.373-7.373h53.517c4.083 0 7.373 3.29 7.373 7.373s-3.328 7.373-7.373 7.373zM286.835 197.376c-4.083 0-7.373-3.29-7.373-7.373s3.29-7.373 7.373-7.373c25.434 0 46.144-22.426 46.144-49.984 0-4.083 3.29-7.373 7.373-7.373s7.373 3.29 7.373 7.373c0 17.203-6.272 33.395-17.664 45.594-11.52 12.314-26.855 19.136-43.226 19.136z" clip-rule="evenodd" fill="#00ffff" opacity="1" data-original="#00ffff"></path><path fill-rule="evenodd" d="M340.352 140.019h-53.517c-4.083 0-7.373-3.29-7.373-7.373s3.29-7.373 7.373-7.373h53.517a7.359 7.359 0 0 1 7.373 7.373c0 4.084-3.328 7.373-7.373 7.373zM286.835 276.57c-4.083 0-7.373-3.29-7.373-7.373s3.29-7.373 7.373-7.373c25.434 0 46.144-22.426 46.144-49.984 0-4.083 3.29-7.373 7.373-7.373s7.373 3.29 7.373 7.373c0 17.203-6.272 33.395-17.664 45.594-11.52 12.352-26.855 19.136-43.226 19.136z" clip-rule="evenodd" fill="#00ffff" opacity="1" data-original="#00ffff"></path><path fill-rule="evenodd" d="M340.352 219.213h-53.517c-4.083 0-7.373-3.29-7.373-7.373s3.29-7.373 7.373-7.373h53.517a7.359 7.359 0 0 1 7.373 7.373c0 4.096-3.328 7.373-7.373 7.373zM425.651 256.998c-1.997 0-3.994-.794-5.44-2.394a7.357 7.357 0 0 1 .461-10.419c11.366-10.445 20.339-22.822 26.637-36.838 6.515-14.502 9.83-29.978 9.83-46.016s-3.315-31.514-9.83-46.016c-6.298-14.003-15.27-26.419-26.637-36.838a7.381 7.381 0 0 1-.461-10.419c2.739-3.008 7.398-3.2 10.419-.461 12.877 11.802 23.014 25.805 30.106 41.651 7.373 16.41 11.123 33.946 11.123 52.07s-3.75 35.661-11.123 52.07c-7.13 15.846-17.267 29.862-30.106 41.651a7.298 7.298 0 0 1-4.979 1.959z" clip-rule="evenodd" fill="#00ffff" opacity="1" data-original="#00ffff"></path><path fill-rule="evenodd" d="M401.946 231.142c-1.997 0-3.994-.794-5.44-2.394a7.357 7.357 0 0 1 .461-10.419c7.834-7.194 13.978-15.693 18.304-25.344 4.48-9.984 6.758-20.608 6.758-31.642s-2.278-21.683-6.758-31.642c-4.326-9.651-10.509-18.15-18.304-25.344-3.008-2.765-3.2-7.398-.461-10.419s7.398-3.2 10.419-.461c9.306 8.538 16.653 18.675 21.811 30.17 5.35 11.891 8.051 24.576 8.051 37.696s-2.701 25.805-8.051 37.696c-5.158 11.494-12.506 21.632-21.811 30.17a7.43 7.43 0 0 1-4.979 1.933z" clip-rule="evenodd" fill="#00ffff" opacity="1" data-original="#00ffff"></path><path fill-rule="evenodd" d="M378.803 205.888c-1.997 0-3.994-.794-5.44-2.394a7.357 7.357 0 0 1 .461-10.419c8.883-8.141 13.978-19.725 13.978-31.77s-5.094-23.629-13.978-31.77a7.381 7.381 0 0 1-.461-10.419 7.381 7.381 0 0 1 10.419-.461c11.917 10.931 18.739 26.483 18.739 42.637s-6.848 31.706-18.739 42.637a7.29 7.29 0 0 1-4.979 1.959zM46.208 256.998a7.371 7.371 0 0 1-4.979-1.933c-12.877-11.802-23.014-25.805-30.106-41.651C3.75 197.005 0 179.469 0 161.344s3.75-35.661 11.123-52.07c7.13-15.859 17.267-29.862 30.106-41.664a7.357 7.357 0 0 1 10.419.461 7.357 7.357 0 0 1-.461 10.419c-11.366 10.445-20.339 22.822-26.637 36.838-6.515 14.502-9.83 29.978-9.83 46.016s3.315 31.514 9.83 46.016c6.298 14.003 15.27 26.419 26.637 36.838a7.381 7.381 0 0 1 .461 10.419 7.424 7.424 0 0 1-5.44 2.381z" clip-rule="evenodd" fill="#00ffff" opacity="1" data-original="#00ffff"></path><path fill-rule="evenodd" d="M69.914 231.142a7.371 7.371 0 0 1-4.979-1.933c-9.306-8.538-16.653-18.675-21.811-30.17-5.35-11.891-8.051-24.576-8.051-37.696s2.701-25.805 8.051-37.696c5.158-11.494 12.506-21.632 21.811-30.17a7.357 7.357 0 0 1 10.419.461 7.357 7.357 0 0 1-.461 10.419c-7.834 7.194-13.978 15.693-18.304 25.344-4.48 9.984-6.758 20.608-6.758 31.642s2.278 21.683 6.758 31.642c4.326 9.651 10.509 18.15 18.304 25.344a7.381 7.381 0 0 1 .461 10.419 7.44 7.44 0 0 1-5.44 2.394z" clip-rule="evenodd" fill="#00ffff" opacity="1" data-original="#00ffff"></path><path fill-rule="evenodd" d="M93.056 205.888a7.371 7.371 0 0 1-4.979-1.933c-11.917-10.931-18.739-26.483-18.739-42.637s6.848-31.706 18.739-42.637a7.357 7.357 0 0 1 10.419.461 7.357 7.357 0 0 1-.461 10.419c-8.883 8.141-13.978 19.725-13.978 31.77s5.094 23.629 13.978 31.77a7.381 7.381 0 0 1 .461 10.419 7.41 7.41 0 0 1-5.44 2.368z" clip-rule="evenodd" fill="#00ffff" opacity="1" data-original="#00ffff"></path></g></svg>