<svg xmlns="http://www.w3.org/2000/svg" version="1.1" xmlns:xlink="http://www.w3.org/1999/xlink" width="512" height="512" x="0" y="0" viewBox="0 0 64 64" style="enable-background:new 0 0 512 512" xml:space="preserve" class=""><g transform="matrix(1.06,0,0,1.06,-1.9200ffff00ffff17,-1.9200ffff00ffff17)"><path d="M57 8h-6.26c-.89-3.44-4.02-6-7.74-6h-6c-3.72 0-6.85 2.56-7.74 6H7c-2.76 0-5 2.24-5 5v32c0 2.76 2.24 5 5 5h12.93a7.853 7.853 0 0 1-3.73 5.71l-.48.29H13c-2.76 0-5 2.24-5 5 0 .55.45 1 1 1h46c.55 0 1-.45 1-1 0-2.76-2.24-5-5-5h-2.72l-.48-.29A7.853 7.853 0 0 1 44.07 50H57c2.76 0 5-2.24 5-5V13c0-2.76-2.24-5-5-5zm-9 5c0-.55.45-1 1-1s1 .45 1 1c0 1.3-.84 2.42-2 2.83zm-14-.08a6.527 6.527 0 0 0 4.25-2.52c2.31 1.5 5 2.39 7.75 2.57V19c0 3.31-2.69 6-6 6s-6-2.69-6-6zM50.29 32.3l-.8-2.14c.94.2 1.81.6 2.57 1.14l.11.3c.6 1.6.34 3.38-.68 4.75l-.89 1.18c.25.44.4.93.4 1.47 0 1.65-1.35 3-3 3s-3-1.35-3-3 1.35-3 3-3c.39 0 .75.08 1.09.21l.8-1.06c.61-.82.77-1.89.4-2.85zM48 28h-1c-.74 0-1.38-.4-1.73-1h.96c.87 0 1.68.38 2.23 1.01-.15-.01-.3-.01-.46-.01zm-8 11c-.55 0-1-.45-1-1s.45-1 1-1 1 .45 1 1-.45 1-1 1zm1 3c0 .55-.45 1-1 1s-1-.45-1-1 .45-1 1-1 1 .45 1 1zm-1-10.41-3.56-3.56c.29-.49.48-1.04.54-1.62v-.01c.93.39 1.95.6 3.02.6s2.09-.21 3.02-.6v.01c.06.58.25 1.13.54 1.62zm-5.58 7.27a.983.983 0 0 0-.31-.49l-1.45-1.28a.974.974 0 0 0-.91-.21l-1.8.48a1 1 0 0 0-.69.65l-.62 1.82c-.06.19-.07.39-.02.58l.36 1.35.97-.26a.994.994 0 0 1 1.22.71.988.988 0 0 1-.7 1.22l-.97.26c-.17.05-.34.07-.52.07-.88 0-1.69-.59-1.93-1.48l-.36-1.35c-.15-.58-.13-1.18.06-1.74l.62-1.83c.3-.9 1.02-1.59 1.93-1.88l-.97-3.24c-.11-.35-.18-.71-.21-1.07.62-.41 1.32-.73 2.06-.93-.1.47-.08.97.07 1.43l.98 3.28c.97-.27 2-.02 2.75.64l1.45 1.27c.45.4.77.91.92 1.48l.36 1.35c.14.51.07 1.05-.2 1.52-.27.46-.7.79-1.21.93l-.97.26c-.53.14-1.08-.18-1.22-.71-.15-.53.17-1.08.7-1.23l.97-.25zM31 28.06c.55-.65 1.37-1.06 2.28-1.06h1.45c-.35.6-.99 1-1.73 1h-1c-.34 0-.67.02-1 .06zM31 12c.55 0 1 .45 1 1v2.83c-1.16-.41-2-1.53-2-2.83 0-.55.45-1 1-1zm20 46c1.3 0 2.42.84 2.83 2H10.17c.41-1.16 1.53-2 2.83-2zm9-13a3 3 0 0 1-2 2.82c-.31.12-.65.18-1 .18H7c-1.65 0-3-1.35-3-3V13c0-1.65 1.35-3 3-3h22v.78c-.61.55-1 1.34-1 2.22 0 2.41 1.72 4.43 4 4.9V19c0 2.39 1.06 4.53 2.73 6h-1.45c-2.28 0-4.27 1.55-4.83 3.73C25.25 30.11 23 33.3 23 37v8a1 1 0 0 0 1 1h15c0-.55.45-1 1-1s1 .45 1 1h15a1 1 0 0 0 1-1v-8c0-3.9-2.5-7.23-5.98-8.47l-.115-.304A5 5 0 0 0 46.23 25h-.96c1.67-1.47 2.73-3.61 2.73-6v-1.1c2.28-.47 4-2.49 4-4.9 0-.88-.39-1.67-1-2.22V10h6c1.65 0 3 1.35 3 3z" fill="#00ffff" opacity="1" data-original="#00ffff" class=""></path><circle cx="48" cy="39" r="1" fill="#00ffff" opacity="1" data-original="#00ffff" class=""></circle><circle cx="43" cy="16" r="1" fill="#00ffff" opacity="1" data-original="#00ffff" class=""></circle><circle cx="37" cy="16" r="1" fill="#00ffff" opacity="1" data-original="#00ffff" class=""></circle><path d="M41.168 20.445c-.529.795-1.807.795-2.336 0a1 1 0 1 0-1.664 1.11c.633.949 1.691 1.516 2.832 1.516s2.199-.566 2.832-1.516a1 1 0 0 0-1.664-1.11zM21 17h-3v-3a1 1 0 0 0-1-1h-4a1 1 0 0 0-1 1v3H9a1 1 0 0 0-1 1v4a1 1 0 0 0 1 1h3v3a1 1 0 0 0 1 1h4a1 1 0 0 0 1-1v-3h3a1 1 0 0 0 1-1v-4a1 1 0 0 0-1-1zM20 30h-9a1 1 0 1 0 0 2h9a1 1 0 1 0 0-2zM20 34H8a1 1 0 1 0 0 2h12a1 1 0 1 0 0-2zM20 38H8a1 1 0 1 0 0 2h12a1 1 0 1 0 0-2zM20 42H8a1 1 0 1 0 0 2h12a1 1 0 1 0 0-2zM58 47.82V48h-1c.35 0 .69-.06 1-.18z" fill="#00ffff" opacity="1" data-original="#00ffff" class=""></path></g></svg>