<svg xmlns="http://www.w3.org/2000/svg" version="1.1" xmlns:xlink="http://www.w3.org/1999/xlink" width="512" height="512" x="0" y="0" viewBox="0 0 40 40" style="enable-background:new 0 0 512 512" xml:space="preserve" class=""><g transform="matrix(1.24,0,0,1.24,-4.795617427825924,-4.800120277404787)"><circle cx="20.001" cy="29.653" r="3.163" fill="#00ffff" opacity="1" data-original="#00ffff" class=""></circle><path d="M4.482 15.932a1.648 1.648 0 0 1 0-2.33C8.62 9.465 14.132 7.185 20 7.185c5.868 0 11.379 2.28 15.517 6.418a1.648 1.648 0 0 1-2.33 2.329c-3.515-3.516-8.198-5.452-13.186-5.452-4.987 0-9.673 1.936-13.191 5.453a1.646 1.646 0 0 1-2.33 0z" fill="#00ffff" opacity="1" data-original="#00ffff" class=""></path><path d="M8.869 20.32a1.646 1.646 0 0 1 0-2.33 15.638 15.638 0 0 1 11.132-4.606c4.21 0 8.163 1.635 11.13 4.604a1.648 1.648 0 0 1-2.328 2.33A12.363 12.363 0 0 0 20 16.677a12.366 12.366 0 0 0-8.803 3.641 1.646 1.646 0 0 1-2.329 0z" fill="#00ffff" opacity="1" data-original="#00ffff" class=""></path><path d="M24.417 24.704A6.202 6.202 0 0 0 20 22.88c-1.671 0-3.24.648-4.417 1.825a1.646 1.646 0 0 1-2.329 0 1.646 1.646 0 0 1 0-2.329 9.475 9.475 0 0 1 6.746-2.794c2.549 0 4.944.993 6.745 2.794a1.646 1.646 0 1 1-2.33 2.33z" fill="#00ffff" opacity="1" data-original="#00ffff" class=""></path></g></svg>